<svg xmlns="http://www.w3.org/2000/svg" xmlns:xlink="http://www.w3.org/1999/xlink" width="1080" zoomAndPan="magnify" viewBox="0 0 810 809.999993" height="1080" preserveAspectRatio="xMidYMid meet" version="1.0"><defs><clipPath id="a21ea0101f"><path d="M 1 68.34375 L 796 68.34375 L 796 656 L 1 656 Z M 1 68.34375 " clip-rule="nonzero"/></clipPath><clipPath id="74c516c2bf"><path d="M 63 68.34375 L 808 68.34375 L 808 555 L 63 555 Z M 63 68.34375 " clip-rule="nonzero"/></clipPath><clipPath id="088d561609"><path d="M 166 546 L 810 546 L 810 741.84375 L 166 741.84375 Z M 166 546 " clip-rule="nonzero"/></clipPath></defs><g clip-path="url(#a21ea0101f)"><path fill="#428782" d="M 598.742188 74.226562 L 63.265625 68.695312 C 32.289062 89.550781 16.480469 116.136719 8.257812 136.351562 C -0.0898438 156.875 0.328125 195.9375 5.523438 216.523438 C 5.90625 218.019531 166.441406 655.632812 166.441406 655.632812 L 795.113281 547.617188 L 598.742188 74.226562 " fill-opacity="1" fill-rule="nonzero"/></g><g clip-path="url(#74c516c2bf)"><path fill="#5cbeb4" d="M 253.742188 553.179688 L 807.640625 554.292969 L 598.742188 74.226562 L 63.265625 68.695312 L 253.742188 553.179688 " fill-opacity="1" fill-rule="nonzero"/></g><g clip-path="url(#088d561609)"><path fill="#428782" d="M 251.394531 546.878906 L 794.105469 546.878906 C 802.828125 546.878906 809.925781 553.949219 809.925781 562.691406 C 809.925781 571.414062 802.828125 578.515625 794.105469 578.515625 C 775.855469 578.515625 740.785156 606.195312 740.785156 644.050781 C 740.785156 681.917969 775.855469 709.585938 794.105469 709.585938 C 802.828125 709.585938 809.925781 716.667969 809.925781 725.398438 C 809.925781 734.132812 802.828125 741.222656 794.105469 741.222656 L 251.394531 741.222656 C 213.140625 741.222656 166.441406 696.390625 166.441406 644.050781 C 166.441406 591.710938 213.140625 546.878906 251.394531 546.878906 " fill-opacity="1" fill-rule="nonzero"/></g><path fill="#ffffff" d="M 251.394531 562.691406 L 794.105469 562.691406 C 765.824219 562.691406 724.984375 599.113281 724.984375 644.050781 C 724.984375 688.988281 765.824219 725.398438 794.105469 725.398438 L 251.394531 725.398438 C 223.101562 725.398438 182.269531 688.988281 182.269531 644.050781 C 182.269531 599.113281 223.101562 562.691406 251.394531 562.691406 " fill-opacity="1" fill-rule="nonzero"/><path fill="#eae5cc" d="M 251.394531 562.691406 L 794.105469 562.691406 C 783.554688 562.691406 771.269531 567.765625 760.011719 576.449219 L 249.5625 576.449219 C 246.777344 576.449219 244.511719 577.414062 244.511719 578.632812 C 244.511719 579.835938 246.777344 580.816406 249.5625 580.816406 L 754.773438 580.816406 C 751.824219 583.476562 749.027344 586.410156 746.34375 589.539062 L 249.5625 589.539062 C 246.777344 589.539062 244.511719 590.503906 244.511719 591.710938 C 244.511719 592.9375 246.777344 593.914062 249.5625 593.914062 L 742.777344 593.914062 C 740.691406 596.660156 738.734375 599.582031 736.917969 602.609375 L 249.5625 602.609375 C 246.777344 602.609375 244.511719 603.59375 244.511719 604.800781 C 244.511719 606.007812 246.777344 606.996094 249.5625 606.996094 L 734.464844 606.996094 C 733 609.800781 731.6875 612.703125 730.523438 615.6875 L 249.5625 615.6875 C 246.777344 615.6875 244.511719 616.664062 244.511719 617.882812 C 244.511719 619.109375 246.777344 620.074219 249.5625 620.074219 L 728.859375 620.074219 C 727.9375 622.902344 727.199219 625.824219 726.59375 628.777344 L 249.5625 628.777344 C 246.777344 628.777344 244.511719 629.753906 244.511719 630.960938 C 244.511719 632.175781 246.777344 633.15625 249.5625 633.15625 L 725.867188 633.15625 C 725.453125 636.003906 725.171875 638.914062 725.089844 641.867188 L 249.5625 641.867188 C 246.777344 641.867188 244.511719 642.835938 244.511719 644.039062 C 244.511719 645.246094 246.777344 646.246094 249.5625 646.246094 L 725.089844 646.246094 C 725.171875 649.1875 725.441406 652.078125 725.867188 654.9375 L 249.574219 654.9375 C 246.777344 654.9375 244.492188 655.902344 244.492188 657.121094 C 244.492188 658.335938 246.777344 659.324219 249.574219 659.324219 L 726.59375 659.324219 C 727.199219 662.277344 727.9375 665.179688 728.859375 668.015625 L 249.574219 668.015625 C 246.777344 668.015625 244.492188 668.996094 244.492188 670.210938 C 244.492188 671.40625 246.777344 672.40625 249.574219 672.40625 L 730.523438 672.40625 C 731.6875 675.390625 733 678.300781 734.464844 681.105469 L 249.574219 681.105469 C 246.777344 681.105469 244.492188 682.085938 244.492188 683.300781 C 244.492188 684.496094 246.777344 685.484375 249.574219 685.484375 L 736.917969 685.484375 C 738.734375 688.519531 740.691406 691.433594 742.769531 694.1875 L 249.574219 694.1875 C 246.777344 694.1875 244.492188 695.164062 244.492188 696.371094 C 244.492188 697.578125 246.777344 698.5625 249.574219 698.5625 L 746.335938 698.5625 C 749.027344 701.683594 751.824219 704.625 754.765625 707.277344 L 249.574219 707.277344 C 246.777344 707.277344 244.492188 708.253906 244.492188 709.460938 C 244.492188 710.65625 246.777344 711.644531 249.574219 711.644531 L 760.003906 711.644531 C 771.269531 720.324219 783.554688 725.398438 794.105469 725.398438 L 251.394531 725.398438 C 223.101562 725.398438 182.269531 688.988281 182.269531 644.050781 C 182.269531 599.113281 223.101562 562.691406 251.394531 562.691406 " fill-opacity="1" fill-rule="nonzero"/></svg>