<svg xmlns="http://www.w3.org/2000/svg" xmlns:xlink="http://www.w3.org/1999/xlink" width="1080" zoomAndPan="magnify" viewBox="0 0 810 809.999993" height="1080" preserveAspectRatio="xMidYMid meet" version="1.0"><path fill="#ffd740" d="M 405.011719 0 C 181.308594 0 0 181.375 0 405 C 0 628.742188 181.308594 810 405.011719 810 C 628.671875 810 810 628.742188 810 405 C 810 181.375 628.671875 0 405.011719 0 " fill-opacity="1" fill-rule="nonzero"/><path fill="#f57f17" d="M 405.011719 60.792969 C 214.894531 60.792969 60.761719 214.917969 60.761719 405 C 60.761719 595.125 214.894531 749.25 405.011719 749.25 C 595.097656 749.25 749.230469 595.125 749.230469 405 C 749.230469 214.917969 595.097656 60.792969 405.011719 60.792969 " fill-opacity="1" fill-rule="nonzero"/><path fill="#ffab00" d="M 405.011719 86.050781 C 214.894531 86.050781 60.761719 214.917969 60.761719 405 C 60.761719 595.125 214.894531 749.25 405.011719 749.25 C 595.097656 749.25 749.230469 595.125 749.230469 405 C 749.230469 214.917969 595.097656 86.050781 405.011719 86.050781 " fill-opacity="1" fill-rule="nonzero"/><path fill="#f57f17" d="M 516.683594 438.511719 C 500.636719 419.371094 470.261719 403.742188 425.871094 391.742188 C 423.203125 390.96875 391.417969 381.011719 385.535156 378.324219 C 373.488281 373.191406 364.519531 366.40625 358.582031 357.933594 C 355.460938 353.460938 353.179688 348.871094 351.664062 343.96875 C 351.652344 343.800781 351.570312 343.515625 351.523438 343.277344 C 351.269531 342.632812 351.078125 341.917969 350.960938 341.277344 C 349.847656 337.339844 349.199219 333.210938 349.199219 328.941406 C 349.199219 300.945312 373.960938 278.324219 404.378906 278.324219 C 434.292969 278.324219 458.597656 300.171875 459.460938 327.476562 L 529.484375 318.332031 L 529.484375 293.023438 L 508.648438 266.101562 L 508.632812 266.160156 C 504.914062 260.972656 500.796875 256.175781 496.195312 251.78125 C 478.714844 235.238281 455.292969 225.113281 425.871094 221.585938 L 425.871094 183.464844 L 385.535156 183.464844 L 385.535156 221.585938 C 353.699219 224.777344 328.121094 236.671875 308.941406 257.355469 C 289.789062 277.972656 280.1875 303.511719 280.1875 333.882812 C 280.1875 363.917969 288.730469 389.390625 305.621094 410.472656 C 322.621094 431.476562 349.222656 447.15625 385.535156 457.585938 C 391.347656 459.460938 422.175781 468.394531 425.871094 469.539062 C 442.496094 474.328125 454.53125 481.210938 461.832031 490.167969 C 469.144531 499.199219 472.84375 509.925781 472.84375 522.371094 C 472.84375 536.203125 468.472656 548.328125 459.753906 558.605469 C 451.015625 568.839844 439.722656 575.304688 425.871094 577.910156 C 410.441406 580.53125 393.316406 578.433594 385.535156 574 C 375.566406 569.199219 366.46875 561.394531 358.285156 550.695312 C 350.113281 539.898438 344.640625 527.152344 341.609375 512.265625 L 269.097656 494.828125 L 269.097656 520.113281 C 274.679688 556.621094 287.457031 584.847656 307.4375 604.871094 C 327.4375 624.847656 353.453125 636.8125 385.535156 640.695312 L 385.535156 677.148438 L 425.871094 677.148438 L 425.871094 639.324219 C 461.964844 634.15625 490.15625 620.125 510.460938 597.09375 C 530.707031 574.128906 540.855469 545.84375 540.855469 512.265625 C 540.855469 482.304688 532.828125 457.683594 516.683594 438.511719 " fill-opacity="1" fill-rule="nonzero"/><path fill="#ffd740" d="M 425.871094 366.441406 C 423.203125 365.664062 391.417969 355.683594 385.535156 353.050781 C 373.488281 347.886719 364.519531 341.097656 358.582031 332.636719 C 355.460938 328.179688 353.179688 323.558594 351.664062 318.695312 C 351.652344 318.496094 351.570312 318.222656 351.523438 317.996094 C 351.269531 317.328125 351.078125 316.660156 350.960938 316.003906 C 349.847656 312.046875 349.199219 307.917969 349.199219 303.648438 C 349.199219 275.636719 373.960938 253.042969 404.378906 253.042969 C 434.292969 253.042969 458.597656 274.890625 459.460938 302.171875 L 529.484375 293.023438 C 524.671875 265.261719 513.53125 243.042969 496.195312 226.507812 C 478.714844 209.953125 455.292969 199.808594 425.871094 196.304688 L 425.871094 158.160156 L 385.535156 158.160156 L 385.535156 196.304688 C 353.699219 199.496094 328.121094 211.390625 308.941406 232.074219 C 289.789062 252.683594 280.1875 278.21875 280.1875 308.574219 C 280.1875 338.625 288.730469 364.105469 305.621094 385.144531 C 322.621094 406.195312 349.222656 421.902344 385.535156 432.308594 C 391.347656 434.152344 422.175781 443.109375 425.871094 444.273438 C 442.496094 449.027344 454.53125 455.898438 461.832031 464.875 C 469.144531 473.917969 472.84375 484.625 472.84375 497.050781 C 472.84375 510.902344 468.472656 523.015625 459.753906 533.320312 C 451.015625 543.558594 439.722656 550.003906 425.871094 552.605469 C 410.441406 555.246094 393.316406 553.140625 385.535156 548.707031 C 375.566406 543.894531 366.46875 536.105469 358.285156 525.394531 C 350.113281 514.597656 344.640625 501.871094 341.609375 486.972656 L 269.097656 494.828125 C 274.679688 531.308594 287.457031 559.558594 307.4375 579.574219 C 327.4375 599.542969 353.453125 611.527344 385.535156 615.414062 L 385.535156 651.855469 L 425.871094 651.855469 L 425.871094 614.027344 C 461.964844 608.847656 490.15625 594.804688 510.460938 571.800781 C 530.707031 548.839844 540.855469 520.554688 540.855469 486.972656 C 540.855469 457.003906 532.828125 432.378906 516.683594 413.207031 C 500.636719 394.070312 470.261719 378.449219 425.871094 366.441406 " fill-opacity="1" fill-rule="nonzero"/><path fill="#ffffff" d="M 280.40625 135.664062 C 210.382812 148.550781 199.941406 159.007812 187.058594 229.027344 C 174.152344 159.007812 163.707031 148.550781 93.695312 135.664062 C 163.707031 122.773438 174.152344 112.320312 187.058594 42.308594 C 199.941406 112.320312 210.382812 122.773438 280.40625 135.664062 " fill-opacity="1" fill-rule="nonzero"/></svg>