<svg xmlns="http://www.w3.org/2000/svg" xmlns:xlink="http://www.w3.org/1999/xlink" width="1080" zoomAndPan="magnify" viewBox="0 0 810 809.999993" height="1080" preserveAspectRatio="xMidYMid meet" version="1.0"><defs><clipPath id="8e557c7bc2"><path d="M 52.199219 0 L 757.84375 0 L 757.84375 810 L 52.199219 810 Z M 52.199219 0 " clip-rule="nonzero"/></clipPath><clipPath id="92c2d3e856"><path d="M 52.199219 0 L 757.84375 0 L 757.84375 810 L 52.199219 810 Z M 52.199219 0 " clip-rule="nonzero"/></clipPath></defs><g clip-path="url(#8e557c7bc2)"><path fill="#ffb404" d="M 380.070312 6.710938 C 316.230469 44.09375 135.6875 149.800781 74.675781 185.519531 C 60.703125 193.699219 52.199219 208.144531 52.199219 223.695312 C 52.199219 295.179688 52.199219 514.820312 52.199219 586.304688 C 52.199219 601.855469 60.703125 616.300781 74.675781 624.480469 C 135.6875 660.203125 316.230469 765.90625 380.070312 803.285156 C 395.359375 812.238281 414.683594 812.238281 429.972656 803.285156 C 493.816406 765.90625 674.355469 660.203125 735.367188 624.480469 C 749.339844 616.300781 757.847656 601.855469 757.847656 586.304688 C 757.847656 514.820312 757.847656 295.179688 757.847656 223.695312 C 757.847656 208.144531 749.339844 193.699219 735.367188 185.519531 C 674.355469 149.800781 493.816406 44.09375 429.972656 6.710938 C 414.683594 -2.238281 395.359375 -2.238281 380.070312 6.710938 " fill-opacity="1" fill-rule="evenodd"/></g><path fill="#fed54a" d="M 674.234375 247.378906 C 677.253906 252.667969 678.910156 258.65625 678.910156 264.859375 C 678.910156 324.589844 678.910156 485.410156 678.910156 545.136719 C 678.910156 557.863281 671.949219 569.679688 660.519531 576.375 C 609.800781 606.066406 478.445312 682.972656 425.4375 714.011719 C 412.925781 721.335938 397.117188 721.335938 384.609375 714.011719 C 331.597656 682.972656 200.242188 606.066406 149.527344 576.375 C 143.667969 572.945312 138.988281 568.171875 135.8125 562.617188 L 145.011719 557.230469 C 147.292969 561.472656 150.785156 565.113281 155.195312 567.699219 L 390.28125 705.335938 C 399.3125 710.625 410.730469 710.625 419.765625 705.335938 L 654.847656 567.699219 C 663.105469 562.863281 668.132812 554.328125 668.132812 545.136719 C 668.132812 485.410156 668.132812 324.589844 668.132812 264.859375 C 668.132812 260.582031 667.039062 256.449219 665.03125 252.765625 L 674.234375 247.378906 " fill-opacity="1" fill-rule="evenodd"/><path fill="#dc9202" d="M 135.8125 562.617188 C 132.789062 557.332031 131.136719 551.34375 131.136719 545.136719 C 131.136719 485.410156 131.136719 324.589844 131.136719 264.859375 C 131.136719 252.136719 138.09375 240.316406 149.527344 233.625 L 384.609375 95.988281 C 397.117188 88.664062 412.925781 88.664062 425.433594 95.988281 C 478.445312 127.027344 609.804688 203.933594 660.515625 233.625 C 666.375 237.054688 671.058594 241.832031 674.230469 247.378906 L 665.03125 252.765625 C 662.75 248.527344 659.261719 244.882812 654.847656 242.300781 C 604.132812 212.609375 472.777344 135.699219 419.765625 104.667969 C 410.730469 99.375 399.3125 99.375 390.28125 104.667969 L 155.195312 242.300781 C 146.941406 247.136719 141.914062 255.671875 141.914062 264.859375 C 141.914062 324.589844 141.914062 485.410156 141.914062 545.136719 C 141.914062 549.414062 143.003906 553.550781 145.011719 557.230469 L 135.8125 562.617188 " fill-opacity="1" fill-rule="evenodd"/><path fill="#fcc201" d="M 384.609375 13.652344 C 397.117188 6.328125 412.925781 6.328125 425.433594 13.652344 C 489.277344 51.035156 669.824219 156.738281 730.828125 192.457031 C 742.261719 199.152344 749.21875 210.96875 749.21875 223.695312 C 749.21875 295.179688 749.21875 514.820312 749.21875 586.304688 C 749.21875 599.027344 742.261719 610.847656 730.828125 617.542969 C 669.824219 653.261719 489.277344 758.964844 425.433594 796.34375 C 412.925781 803.667969 397.117188 803.667969 384.609375 796.34375 C 320.765625 758.964844 140.222656 653.261719 79.214844 617.542969 C 67.78125 610.847656 60.824219 599.027344 60.824219 586.304688 C 60.824219 514.820312 60.824219 295.179688 60.824219 223.695312 C 60.824219 210.96875 67.78125 199.152344 79.214844 192.457031 Z M 380.070312 89.046875 L 144.988281 226.683594 C 131.015625 234.863281 122.511719 249.308594 122.511719 264.859375 C 122.511719 324.589844 122.511719 485.410156 122.511719 545.136719 C 122.511719 560.691406 131.015625 575.132812 144.988281 583.316406 C 195.707031 613.007812 327.0625 689.914062 380.070312 720.953125 C 395.359375 729.902344 414.683594 729.902344 429.972656 720.953125 C 482.984375 689.914062 614.335938 613.007812 665.054688 583.316406 C 679.03125 575.132812 687.53125 560.691406 687.53125 545.136719 C 687.53125 485.410156 687.53125 324.589844 687.53125 264.859375 C 687.53125 249.308594 679.03125 234.863281 665.054688 226.683594 C 614.335938 196.992188 482.984375 120.085938 429.972656 89.046875 C 414.683594 80.09375 395.359375 80.09375 380.070312 89.046875 " fill-opacity="1" fill-rule="evenodd"/><g clip-path="url(#92c2d3e856)"><path fill="#fed54a" d="M 380.070312 6.710938 C 316.230469 44.09375 135.6875 149.800781 74.675781 185.519531 C 60.703125 193.699219 52.199219 208.144531 52.199219 223.695312 C 52.199219 295.179688 52.199219 514.820312 52.199219 586.304688 C 52.199219 601.855469 60.703125 616.300781 74.675781 624.480469 C 135.6875 660.203125 316.230469 765.90625 380.070312 803.285156 C 395.359375 812.238281 414.683594 812.238281 429.972656 803.285156 C 493.816406 765.90625 674.355469 660.203125 735.367188 624.480469 C 749.339844 616.300781 757.847656 601.855469 757.847656 586.304688 C 757.847656 514.820312 757.847656 295.179688 757.847656 223.695312 C 757.847656 208.144531 749.339844 193.699219 735.367188 185.519531 C 674.355469 149.800781 493.816406 44.09375 429.972656 6.710938 C 414.683594 -2.238281 395.359375 -2.238281 380.070312 6.710938 Z M 384.609375 13.65625 C 397.117188 6.332031 412.925781 6.332031 425.4375 13.65625 C 489.277344 51.035156 669.824219 156.738281 730.832031 192.457031 C 742.261719 199.148438 749.21875 210.972656 749.21875 223.695312 C 749.21875 295.179688 749.21875 514.820312 749.21875 586.304688 C 749.21875 599.03125 742.261719 610.847656 730.832031 617.542969 C 669.824219 653.261719 489.277344 758.964844 425.4375 796.34375 C 412.925781 803.667969 397.117188 803.667969 384.609375 796.34375 C 320.765625 758.964844 140.222656 653.261719 79.214844 617.542969 C 67.78125 610.847656 60.824219 599.03125 60.824219 586.304688 C 60.824219 514.820312 60.824219 295.179688 60.824219 223.695312 C 60.824219 210.972656 67.78125 199.148438 79.214844 192.457031 Z M 380.070312 89.042969 L 144.988281 226.683594 C 131.015625 234.863281 122.511719 249.3125 122.511719 264.859375 C 122.511719 324.589844 122.511719 485.410156 122.511719 545.136719 C 122.511719 560.691406 131.015625 575.132812 144.988281 583.316406 C 195.707031 613.007812 327.058594 689.914062 380.070312 720.953125 C 395.359375 729.902344 414.683594 729.902344 429.972656 720.953125 C 482.984375 689.914062 614.335938 613.007812 665.054688 583.316406 C 679.027344 575.132812 687.53125 560.691406 687.53125 545.136719 C 687.53125 485.410156 687.53125 324.589844 687.53125 264.859375 C 687.53125 249.3125 679.027344 234.863281 665.054688 226.683594 C 614.335938 196.988281 482.984375 120.082031 429.972656 89.042969 C 414.683594 80.09375 395.359375 80.09375 380.070312 89.042969 Z M 384.609375 95.988281 C 397.117188 88.660156 412.925781 88.660156 425.4375 95.988281 C 478.449219 127.023438 609.800781 203.929688 660.515625 233.628906 C 671.949219 240.320312 678.910156 252.136719 678.910156 264.859375 C 678.910156 324.589844 678.910156 485.410156 678.910156 545.136719 C 678.910156 557.863281 671.949219 569.679688 660.515625 576.375 C 609.800781 606.066406 478.449219 682.972656 425.4375 714.011719 C 412.925781 721.335938 397.117188 721.335938 384.609375 714.011719 C 331.597656 682.972656 200.242188 606.066406 149.527344 576.375 C 138.09375 569.679688 131.136719 557.863281 131.136719 545.136719 C 131.136719 485.410156 131.136719 324.589844 131.136719 264.859375 C 131.136719 252.136719 138.09375 240.320312 149.527344 233.628906 L 384.609375 95.988281 " fill-opacity="1" fill-rule="evenodd"/></g><path fill="#dc9202" d="M 234.320312 400.78125 L 228.929688 390.128906 L 228.929688 500.484375 C 228.929688 502.816406 227.039062 504.707031 224.703125 504.707031 L 195.597656 504.707031 L 195.597656 505.875 C 195.597656 508.210938 197.492188 510.101562 199.824219 510.101562 L 230.097656 510.101562 C 232.429688 510.101562 234.320312 508.210938 234.320312 505.875 Z M 326.445312 305.292969 L 326.445312 500.484375 C 326.445312 502.816406 324.554688 504.707031 322.222656 504.707031 L 289.605469 504.707031 L 291.160156 507.785156 C 291.878906 509.207031 293.339844 510.101562 294.929688 510.101562 L 327.613281 510.101562 C 329.949219 510.101562 331.839844 508.210938 331.839844 505.875 L 331.839844 309.515625 C 331.839844 307.183594 329.949219 305.292969 327.613281 305.292969 Z M 455.273438 384.984375 L 455.273438 417.035156 C 455.273438 419.367188 453.382812 421.261719 451.050781 421.261719 C 451.050781 421.261719 402.660156 421.261719 387.898438 421.261719 L 387.898438 500.484375 C 387.898438 502.816406 386.003906 504.707031 383.671875 504.707031 L 352.421875 504.707031 L 352.421875 505.875 C 352.421875 508.210938 354.316406 510.101562 356.648438 510.101562 L 389.066406 510.101562 C 391.398438 510.101562 393.289062 508.210938 393.289062 505.875 L 393.289062 426.652344 L 456.441406 426.652344 C 458.773438 426.652344 460.664062 424.761719 460.664062 422.429688 L 460.664062 389.210938 C 460.664062 386.878906 458.773438 384.984375 456.441406 384.984375 Z M 614.445312 305.292969 L 614.445312 337.34375 C 614.445312 339.671875 612.550781 341.566406 610.21875 341.566406 C 610.21875 341.566406 578.421875 341.566406 566.757812 341.566406 L 566.757812 500.484375 C 566.757812 502.816406 564.867188 504.707031 562.535156 504.707031 L 531.285156 504.707031 L 531.285156 505.875 C 531.285156 508.210938 533.175781 510.101562 535.511719 510.101562 L 567.925781 510.101562 C 570.257812 510.101562 572.148438 508.210938 572.148438 505.875 C 572.148438 505.875 572.148438 372.5625 572.148438 346.957031 L 615.613281 346.957031 C 617.945312 346.957031 619.835938 345.066406 619.835938 342.734375 L 619.835938 309.515625 C 619.835938 307.183594 617.945312 305.292969 615.613281 305.292969 Z M 231.359375 305.292969 L 287.722656 417.445312 L 287.722656 412.105469 L 235.210938 307.617188 C 234.492188 306.191406 233.035156 305.292969 231.4375 305.292969 Z M 465.859375 305.292969 L 465.859375 337.34375 C 465.859375 339.671875 463.96875 341.566406 461.632812 341.566406 C 461.632812 341.566406 404.136719 341.566406 387.898438 341.566406 L 387.898438 379.59375 L 393.289062 379.59375 L 393.289062 346.957031 C 409.527344 346.957031 467.023438 346.957031 467.023438 346.957031 C 469.359375 346.957031 471.25 345.066406 471.25 342.734375 L 471.25 309.515625 C 471.25 307.183594 469.359375 305.292969 467.023438 305.292969 Z M 525.890625 346.957031 L 525.890625 341.566406 L 483.464844 341.566406 L 483.464844 342.734375 C 483.464844 345.066406 485.355469 346.957031 487.691406 346.957031 L 525.890625 346.957031 " fill-opacity="1" fill-rule="evenodd"/><path fill="#fff77a" d="M 190.207031 500.484375 C 190.207031 502.816406 192.097656 504.710938 194.429688 504.710938 L 224.703125 504.710938 C 227.035156 504.710938 228.929688 502.816406 228.929688 500.484375 L 228.929688 390.128906 L 285.769531 502.394531 C 286.488281 503.8125 287.945312 504.710938 289.535156 504.710938 L 322.222656 504.710938 C 324.554688 504.710938 326.445312 502.816406 326.445312 500.484375 L 326.445312 304.125 C 326.445312 301.789062 324.554688 299.898438 322.222656 299.898438 L 291.949219 299.898438 C 289.613281 299.898438 287.722656 301.789062 287.722656 304.125 L 287.722656 417.441406 L 229.816406 302.226562 C 229.101562 300.800781 227.640625 299.898438 226.042969 299.898438 L 194.429688 299.898438 C 192.097656 299.898438 190.207031 301.789062 190.207031 304.125 Z M 347.03125 500.484375 C 347.03125 502.816406 348.921875 504.710938 351.253906 504.710938 L 383.671875 504.710938 C 386.003906 504.710938 387.894531 502.816406 387.894531 500.484375 L 387.894531 421.261719 C 402.65625 421.261719 451.046875 421.261719 451.046875 421.261719 C 453.382812 421.261719 455.273438 419.371094 455.273438 417.039062 L 455.273438 383.820312 C 455.273438 381.488281 453.382812 379.59375 451.046875 379.59375 L 387.894531 379.59375 L 387.894531 341.566406 C 404.132812 341.566406 461.628906 341.566406 461.628906 341.566406 C 463.964844 341.566406 465.855469 339.675781 465.855469 337.34375 L 465.855469 304.125 C 465.855469 301.789062 463.964844 299.898438 461.628906 299.898438 L 351.253906 299.898438 C 348.921875 299.898438 347.03125 301.789062 347.03125 304.125 Z M 525.890625 500.484375 C 525.890625 502.816406 527.78125 504.710938 530.113281 504.710938 L 562.53125 504.710938 C 564.867188 504.710938 566.757812 502.816406 566.757812 500.484375 L 566.757812 341.566406 C 578.421875 341.566406 610.21875 341.566406 610.21875 341.566406 C 612.554688 341.566406 614.445312 339.675781 614.445312 337.34375 L 614.445312 304.125 C 614.445312 301.789062 612.554688 299.898438 610.21875 299.898438 L 482.296875 299.898438 C 479.960938 299.898438 478.070312 301.789062 478.070312 304.125 L 478.070312 337.34375 C 478.070312 339.675781 479.960938 341.566406 482.296875 341.566406 C 482.296875 341.566406 514.203125 341.566406 525.890625 341.566406 L 525.890625 500.484375 " fill-opacity="1" fill-rule="evenodd"/><path fill="#fed54a" d="M 196.226562 502.28125 L 196.226562 305.917969 L 227.839844 305.917969 L 293.746094 437.050781 L 293.746094 305.917969 L 324.019531 305.917969 L 324.019531 502.28125 L 291.335938 502.28125 L 226.5 374.234375 L 226.5 502.28125 Z M 353.050781 502.28125 L 353.050781 305.917969 L 463.429688 305.917969 L 463.429688 339.136719 L 385.46875 339.136719 L 385.46875 385.617188 L 452.847656 385.617188 L 452.847656 418.835938 L 385.46875 418.835938 L 385.46875 502.28125 Z M 531.914062 502.28125 L 531.914062 339.136719 L 484.09375 339.136719 L 484.09375 305.917969 L 612.015625 305.917969 L 612.015625 339.136719 L 564.332031 339.136719 L 564.332031 502.28125 L 531.914062 502.28125 " fill-opacity="1" fill-rule="evenodd"/></svg>