<svg xmlns="http://www.w3.org/2000/svg" xmlns:xlink="http://www.w3.org/1999/xlink" width="1080" zoomAndPan="magnify" viewBox="0 0 810 809.999993" height="1080" preserveAspectRatio="xMidYMid meet" version="1.0"><defs><g/><clipPath id="0b17d3a78c"><path d="M 399.929688 75.289062 L 607 75.289062 L 607 405 L 399.929688 405 Z M 399.929688 75.289062 " clip-rule="nonzero"/></clipPath><clipPath id="3d659a62be"><path d="M 399.929688 75.289062 C 418.609375 75.289062 437.160156 76.867188 455.574219 80.019531 C 473.988281 83.171875 492.003906 87.855469 509.621094 94.074219 C 527.238281 100.289062 544.207031 107.945312 560.523438 117.046875 C 576.839844 126.144531 592.269531 136.554688 606.816406 148.277344 L 399.929688 405 Z M 399.929688 75.289062 " clip-rule="nonzero"/></clipPath><clipPath id="5a2eb92b3d"><path d="M 399.929688 138 L 719 138 L 719 405 L 399.929688 405 Z M 399.929688 138 " clip-rule="nonzero"/></clipPath><clipPath id="369f65549d"><path d="M 593.726562 138.257812 C 608.839844 149.242188 622.921875 161.417969 635.964844 174.792969 C 649.007812 188.167969 660.832031 202.546875 671.429688 217.929688 C 682.03125 233.3125 691.257812 249.480469 699.109375 266.433594 C 706.960938 283.386719 713.324219 300.878906 718.203125 318.914062 L 399.929688 405 Z M 593.726562 138.257812 " clip-rule="nonzero"/></clipPath><clipPath id="8616b5e4f3"><path d="M 193 303 L 730 303 L 730 735 L 193 735 Z M 193 303 " clip-rule="nonzero"/></clipPath><clipPath id="2b785904db"><path d="M 713.5 303.113281 C 716.222656 311.492188 718.605469 319.964844 720.648438 328.53125 C 722.691406 337.101562 724.386719 345.734375 725.738281 354.441406 C 727.089844 363.144531 728.089844 371.886719 728.738281 380.671875 C 729.390625 389.457031 729.6875 398.253906 729.632812 407.0625 C 729.578125 415.867188 729.167969 424.660156 728.410156 433.4375 C 727.648438 442.210938 726.539062 450.941406 725.082031 459.628906 C 723.621094 468.316406 721.816406 476.929688 719.667969 485.472656 C 717.519531 494.011719 715.03125 502.453125 712.203125 510.796875 C 709.375 519.140625 706.222656 527.355469 702.738281 535.445312 C 699.25 543.535156 695.449219 551.472656 691.328125 559.257812 C 687.207031 567.042969 682.78125 574.648438 678.050781 582.078125 C 673.320312 589.507812 668.300781 596.738281 662.988281 603.765625 C 657.679688 610.792969 652.097656 617.597656 646.242188 624.175781 C 640.386719 630.757812 634.277344 637.09375 627.914062 643.183594 C 621.550781 649.273438 614.953125 655.101562 608.125 660.664062 C 601.292969 666.222656 594.253906 671.503906 587 676.5 C 579.746094 681.5 572.304688 686.199219 564.675781 690.601562 C 557.042969 695 549.25 699.089844 541.292969 702.867188 C 533.335938 706.644531 525.238281 710.09375 517.007812 713.222656 C 508.773438 716.351562 500.425781 719.144531 491.96875 721.601562 C 483.507812 724.0625 474.964844 726.179688 466.339844 727.953125 C 457.710938 729.726562 449.027344 731.152344 440.285156 732.230469 C 431.542969 733.308594 422.769531 734.035156 413.972656 734.410156 C 405.171875 734.785156 396.371094 734.808594 387.566406 734.476562 C 378.765625 734.148438 369.992188 733.464844 361.242188 732.433594 C 352.496094 731.398438 343.804688 730.015625 335.167969 728.285156 C 326.53125 726.554688 317.976562 724.484375 309.507812 722.066406 C 301.035156 719.652344 292.675781 716.902344 284.425781 713.816406 C 276.175781 710.730469 268.0625 707.320312 260.085938 703.582031 C 252.109375 699.847656 244.296875 695.800781 236.644531 691.4375 C 228.992188 687.074219 221.527344 682.414062 214.246094 677.453125 C 206.96875 672.492188 199.898438 667.25 193.042969 661.722656 L 399.929688 405 Z M 713.5 303.113281 " clip-rule="nonzero"/></clipPath><clipPath id="5246d4b591"><path d="M 70 287 L 399.929688 287 L 399.929688 672 L 70 672 Z M 70 287 " clip-rule="nonzero"/></clipPath><clipPath id="b2232fbafb"><path d="M 206.128906 671.742188 C 198.867188 666.460938 191.828125 660.894531 185.015625 655.042969 C 178.207031 649.1875 171.648438 643.066406 165.335938 636.679688 C 159.027344 630.289062 152.988281 623.652344 147.21875 616.769531 C 141.453125 609.886719 135.972656 602.78125 130.785156 595.449219 C 125.601562 588.117188 120.71875 580.589844 116.148438 572.859375 C 111.578125 565.128906 107.328125 557.226562 103.402344 549.152344 C 99.476562 541.074219 95.882812 532.851562 92.628906 524.480469 C 89.375 516.113281 86.46875 507.621094 83.90625 499.015625 C 81.347656 490.40625 79.140625 481.710938 77.292969 472.921875 C 75.441406 464.136719 73.953125 455.285156 72.828125 446.378906 C 71.699219 437.46875 70.9375 428.527344 70.542969 419.558594 C 70.144531 410.585938 70.113281 401.613281 70.453125 392.640625 C 70.789062 383.664062 71.488281 374.71875 72.558594 365.804688 C 73.625 356.886719 75.054688 348.027344 76.847656 339.230469 C 78.636719 330.429688 80.785156 321.71875 83.289062 313.09375 C 85.792969 304.46875 88.640625 295.960938 91.839844 287.570312 L 399.929688 405 Z M 206.128906 671.742188 " clip-rule="nonzero"/></clipPath><clipPath id="3eea66c833"><path d="M 86 75.289062 L 399.929688 75.289062 L 399.929688 405 L 86 405 Z M 86 75.289062 " clip-rule="nonzero"/></clipPath><clipPath id="42fb85d59f"><path d="M 86.355469 303.113281 C 89.023438 294.902344 92.011719 286.804688 95.316406 278.828125 C 98.621094 270.847656 102.234375 263.011719 106.152344 255.320312 C 110.074219 247.625 114.289062 240.09375 118.800781 232.734375 C 123.3125 225.371094 128.109375 218.195312 133.183594 211.207031 C 138.257812 204.222656 143.601562 197.445312 149.210938 190.878906 C 154.816406 184.3125 160.675781 177.976562 166.78125 171.867188 C 172.886719 165.761719 179.222656 159.90625 185.789062 154.296875 C 192.355469 148.6875 199.132812 143.34375 206.117188 138.269531 C 213.101562 133.191406 220.277344 128.398438 227.640625 123.886719 C 235.003906 119.375 242.53125 115.15625 250.226562 111.234375 C 257.917969 107.316406 265.753906 103.703125 273.734375 100.398438 C 281.710938 97.089844 289.808594 94.105469 298.019531 91.433594 C 306.230469 88.765625 314.535156 86.421875 322.933594 84.40625 C 331.332031 82.390625 339.792969 80.707031 348.324219 79.355469 C 356.851562 78.003906 365.421875 76.988281 374.03125 76.308594 C 382.636719 75.632812 391.261719 75.292969 399.894531 75.289062 L 399.929688 405 Z M 86.355469 303.113281 " clip-rule="nonzero"/></clipPath></defs><g fill="#ffffff" fill-opacity="1"><g transform="translate(625.883588, 707.044664)"><g><path d="M 4.828125 0 L 2.8125 0 L 2.8125 -18.59375 L 6.046875 -18.59375 L 11.6875 -2.84375 L 11.953125 -2.84375 L 17.59375 -18.59375 L 20.71875 -18.59375 L 20.71875 0 L 18.640625 0 L 18.640625 -15.171875 L 18.328125 -15.21875 L 12.828125 0 L 10.65625 0 L 5.15625 -15.21875 L 4.828125 -15.171875 Z M 4.828125 0 "/></g></g><g transform="translate(649.428811, 707.044664)"><g><path d="M 5.78125 0.265625 C 4.40625 0.265625 3.328125 -0.09375 2.546875 -0.8125 C 1.773438 -1.53125 1.390625 -2.5625 1.390625 -3.90625 C 1.390625 -4.738281 1.5625 -5.441406 1.90625 -6.015625 C 2.25 -6.585938 2.78125 -7.050781 3.5 -7.40625 C 4.21875 -7.769531 5.160156 -8.046875 6.328125 -8.234375 C 7.335938 -8.410156 8.109375 -8.601562 8.640625 -8.8125 C 9.171875 -9.019531 9.523438 -9.253906 9.703125 -9.515625 C 9.890625 -9.785156 9.984375 -10.117188 9.984375 -10.515625 C 9.984375 -11.148438 9.765625 -11.632812 9.328125 -11.96875 C 8.890625 -12.3125 8.1875 -12.484375 7.21875 -12.484375 C 6.3125 -12.484375 5.535156 -12.304688 4.890625 -11.953125 C 4.242188 -11.609375 3.648438 -11.085938 3.109375 -10.390625 L 2.84375 -10.390625 L 1.828125 -11.828125 C 2.421875 -12.578125 3.175781 -13.175781 4.09375 -13.625 C 5.007812 -14.070312 6.050781 -14.296875 7.21875 -14.296875 C 8.875 -14.296875 10.09375 -13.929688 10.875 -13.203125 C 11.664062 -12.484375 12.0625 -11.484375 12.0625 -10.203125 L 12.0625 -2.765625 C 12.0625 -1.984375 12.390625 -1.59375 13.046875 -1.59375 C 13.265625 -1.59375 13.476562 -1.628906 13.6875 -1.703125 L 13.859375 -1.65625 L 14.109375 -0.21875 C 13.953125 -0.113281 13.75 -0.0351562 13.5 0.015625 C 13.25 0.078125 12.992188 0.109375 12.734375 0.109375 C 11.960938 0.109375 11.378906 -0.0625 10.984375 -0.40625 C 10.585938 -0.75 10.332031 -1.25 10.21875 -1.90625 L 9.953125 -1.9375 C 9.554688 -1.195312 9.019531 -0.644531 8.34375 -0.28125 C 7.664062 0.0820312 6.8125 0.265625 5.78125 0.265625 Z M 6.25 -1.390625 C 7.03125 -1.390625 7.703125 -1.566406 8.265625 -1.921875 C 8.835938 -2.285156 9.273438 -2.789062 9.578125 -3.4375 C 9.890625 -4.09375 10.046875 -4.847656 10.046875 -5.703125 L 10.046875 -7.484375 L 9.8125 -7.546875 C 9.488281 -7.328125 9.101562 -7.140625 8.65625 -6.984375 C 8.207031 -6.835938 7.582031 -6.707031 6.78125 -6.59375 C 5.96875 -6.476562 5.320312 -6.304688 4.84375 -6.078125 C 4.363281 -5.847656 4.019531 -5.554688 3.8125 -5.203125 C 3.613281 -4.859375 3.515625 -4.425781 3.515625 -3.90625 C 3.515625 -3.082031 3.753906 -2.457031 4.234375 -2.03125 C 4.710938 -1.601562 5.382812 -1.390625 6.25 -1.390625 Z M 6.25 -1.390625 "/></g></g><g transform="translate(663.942642, 707.044664)"><g><path d="M 2.4375 0 L 2.4375 -14.03125 L 4.40625 -14.03125 L 4.40625 -11.828125 L 4.6875 -11.765625 C 5.332031 -13.359375 6.5625 -14.15625 8.375 -14.15625 C 9.332031 -14.15625 10.046875 -13.984375 10.515625 -13.640625 L 9.984375 -11.875 L 9.734375 -11.828125 C 9.203125 -12.085938 8.625 -12.21875 8 -12.21875 C 6.882812 -12.21875 6.023438 -11.796875 5.421875 -10.953125 C 4.816406 -10.117188 4.515625 -8.757812 4.515625 -6.875 L 4.515625 0 Z M 2.4375 0 "/></g></g><g transform="translate(674.780314, 707.044664)"><g><path d="M 2.4375 0 L 2.4375 -19.65625 L 4.515625 -19.65625 L 4.515625 -8.171875 L 4.859375 -8.171875 L 10.078125 -14.03125 L 12.25 -14.03125 L 12.25 -13.734375 L 6.6875 -7.4375 L 12.78125 -0.3125 L 12.78125 0 L 10.46875 0 L 4.859375 -6.484375 L 4.515625 -6.484375 L 4.515625 0 Z M 2.4375 0 "/></g></g><g transform="translate(687.831313, 707.044664)"><g><path d="M 13.359375 -6.53125 L 3.71875 -6.53125 C 3.78125 -4.832031 4.191406 -3.582031 4.953125 -2.78125 C 5.710938 -1.988281 6.753906 -1.59375 8.078125 -1.59375 C 9.078125 -1.59375 9.878906 -1.769531 10.484375 -2.125 C 11.097656 -2.476562 11.578125 -3.035156 11.921875 -3.796875 L 12.203125 -3.796875 L 13.546875 -3 C 13.140625 -1.976562 12.488281 -1.175781 11.59375 -0.59375 C 10.695312 -0.0195312 9.523438 0.265625 8.078125 0.265625 C 6.722656 0.265625 5.554688 0 4.578125 -0.53125 C 3.597656 -1.0625 2.84375 -1.867188 2.3125 -2.953125 C 1.789062 -4.046875 1.53125 -5.394531 1.53125 -7 C 1.53125 -8.601562 1.804688 -9.953125 2.359375 -11.046875 C 2.921875 -12.140625 3.679688 -12.953125 4.640625 -13.484375 C 5.609375 -14.023438 6.710938 -14.296875 7.953125 -14.296875 C 9.742188 -14.296875 11.144531 -13.785156 12.15625 -12.765625 C 13.164062 -11.753906 13.675781 -10.253906 13.6875 -8.265625 C 13.6875 -7.484375 13.671875 -6.957031 13.640625 -6.6875 Z M 11.640625 -8.265625 C 11.609375 -9.753906 11.273438 -10.835938 10.640625 -11.515625 C 10.015625 -12.203125 9.117188 -12.546875 7.953125 -12.546875 C 6.722656 -12.546875 5.753906 -12.203125 5.046875 -11.515625 C 4.347656 -10.835938 3.925781 -9.753906 3.78125 -8.265625 Z M 11.640625 -8.265625 "/></g></g><g transform="translate(702.790352, 707.044664)"><g><path d="M 9.484375 -2.21875 L 10.15625 -0.734375 C 9.820312 -0.398438 9.382812 -0.148438 8.84375 0.015625 C 8.300781 0.179688 7.71875 0.265625 7.09375 0.265625 C 4.414062 0.265625 3.078125 -1.085938 3.078125 -3.796875 L 3.078125 -12.34375 L 0.640625 -12.34375 L 0.640625 -14.046875 L 3.078125 -14.046875 L 3.078125 -17 L 5.15625 -17.34375 L 5.15625 -14.046875 L 9.671875 -14.046875 L 9.671875 -12.34375 L 5.15625 -12.34375 L 5.15625 -4 C 5.15625 -2.394531 5.851562 -1.59375 7.25 -1.59375 C 8.007812 -1.59375 8.664062 -1.800781 9.21875 -2.21875 Z M 9.484375 -2.21875 "/></g></g><g transform="translate(713.475381, 707.044664)"><g><path d="M 3.484375 -16.734375 C 3.046875 -16.734375 2.6875 -16.867188 2.40625 -17.140625 C 2.132812 -17.421875 2 -17.773438 2 -18.203125 C 2 -18.617188 2.132812 -18.960938 2.40625 -19.234375 C 2.6875 -19.515625 3.046875 -19.65625 3.484375 -19.65625 C 3.921875 -19.65625 4.273438 -19.515625 4.546875 -19.234375 C 4.828125 -18.960938 4.96875 -18.617188 4.96875 -18.203125 C 4.96875 -17.773438 4.828125 -17.421875 4.546875 -17.140625 C 4.273438 -16.867188 3.921875 -16.734375 3.484375 -16.734375 Z M 2.4375 0 L 2.4375 -14.03125 L 4.515625 -14.03125 L 4.515625 0 Z M 2.4375 0 "/></g></g><g transform="translate(720.43337, 707.044664)"><g><path d="M 2.4375 0 L 2.4375 -14.03125 L 4.40625 -14.03125 L 4.40625 -11.828125 L 4.6875 -11.765625 C 5.144531 -12.585938 5.734375 -13.210938 6.453125 -13.640625 C 7.179688 -14.078125 8.070312 -14.296875 9.125 -14.296875 C 10.8125 -14.296875 12.03125 -13.863281 12.78125 -13 C 13.539062 -12.144531 13.921875 -10.820312 13.921875 -9.03125 L 13.921875 0 L 11.859375 0 L 11.859375 -8.984375 C 11.859375 -9.828125 11.75 -10.503906 11.53125 -11.015625 C 11.3125 -11.535156 10.972656 -11.910156 10.515625 -12.140625 C 10.066406 -12.367188 9.472656 -12.484375 8.734375 -12.484375 C 7.472656 -12.484375 6.453125 -12.066406 5.671875 -11.234375 C 4.898438 -10.398438 4.515625 -9.054688 4.515625 -7.203125 L 4.515625 0 Z M 2.4375 0 "/></g></g><g transform="translate(736.588115, 707.044664)"><g><path d="M 7.21875 5.953125 C 5.007812 5.953125 3.394531 5.582031 2.375 4.84375 C 1.363281 4.101562 0.859375 3.125 0.859375 1.90625 C 0.859375 1.113281 1.09375 0.484375 1.5625 0.015625 C 2.039062 -0.441406 2.734375 -0.773438 3.640625 -0.984375 L 3.640625 -1.25 C 3.203125 -1.488281 2.875 -1.773438 2.65625 -2.109375 C 2.445312 -2.441406 2.34375 -2.835938 2.34375 -3.296875 C 2.34375 -3.835938 2.515625 -4.273438 2.859375 -4.609375 C 3.203125 -4.953125 3.710938 -5.210938 4.390625 -5.390625 L 4.390625 -5.65625 C 2.859375 -6.46875 2.09375 -7.78125 2.09375 -9.59375 C 2.09375 -10.507812 2.300781 -11.320312 2.71875 -12.03125 C 3.132812 -12.738281 3.726562 -13.289062 4.5 -13.6875 C 5.269531 -14.09375 6.171875 -14.296875 7.203125 -14.296875 C 8.378906 -14.296875 9.363281 -14.035156 10.15625 -13.515625 C 10.445312 -13.847656 10.664062 -14.203125 10.8125 -14.578125 C 10.96875 -14.953125 11.066406 -15.378906 11.109375 -15.859375 L 11.375 -16.03125 L 13.078125 -15.625 C 12.992188 -14.90625 12.78125 -14.300781 12.4375 -13.8125 C 12.09375 -13.320312 11.601562 -12.914062 10.96875 -12.59375 L 10.96875 -12.328125 C 11.425781 -11.972656 11.757812 -11.554688 11.96875 -11.078125 C 12.1875 -10.597656 12.296875 -10.039062 12.296875 -9.40625 C 12.296875 -8.519531 12.082031 -7.722656 11.65625 -7.015625 C 11.238281 -6.316406 10.644531 -5.765625 9.875 -5.359375 C 9.101562 -4.953125 8.210938 -4.75 7.203125 -4.75 C 7.078125 -4.75 6.863281 -4.757812 6.5625 -4.78125 C 6.21875 -4.800781 5.96875 -4.8125 5.8125 -4.8125 C 5.375 -4.8125 5.019531 -4.695312 4.75 -4.46875 C 4.488281 -4.238281 4.359375 -3.945312 4.359375 -3.59375 C 4.359375 -3.144531 4.5 -2.816406 4.78125 -2.609375 C 5.070312 -2.398438 5.539062 -2.285156 6.1875 -2.265625 L 9.515625 -2.15625 C 10.941406 -2.101562 12 -1.769531 12.6875 -1.15625 C 13.382812 -0.539062 13.734375 0.332031 13.734375 1.46875 C 13.734375 2.300781 13.507812 3.054688 13.0625 3.734375 C 12.613281 4.410156 11.898438 4.945312 10.921875 5.34375 C 9.953125 5.75 8.71875 5.953125 7.21875 5.953125 Z M 7.203125 -6.53125 C 8.191406 -6.53125 8.957031 -6.789062 9.5 -7.3125 C 10.039062 -7.832031 10.3125 -8.554688 10.3125 -9.484375 C 10.3125 -10.453125 10.039062 -11.195312 9.5 -11.71875 C 8.96875 -12.25 8.203125 -12.515625 7.203125 -12.515625 C 6.203125 -12.515625 5.4375 -12.253906 4.90625 -11.734375 C 4.382812 -11.210938 4.125 -10.460938 4.125 -9.484375 C 4.125 -8.546875 4.382812 -7.816406 4.90625 -7.296875 C 5.4375 -6.785156 6.203125 -6.53125 7.203125 -6.53125 Z M 7.21875 4.171875 C 8.257812 4.171875 9.109375 4.054688 9.765625 3.828125 C 10.421875 3.597656 10.890625 3.296875 11.171875 2.921875 C 11.460938 2.546875 11.609375 2.125 11.609375 1.65625 C 11.609375 1.238281 11.53125 0.898438 11.375 0.640625 C 11.21875 0.390625 10.960938 0.203125 10.609375 0.078125 C 10.265625 -0.046875 9.789062 -0.128906 9.1875 -0.171875 L 6.046875 -0.3125 L 5.609375 -0.3125 C 3.847656 -0.289062 2.96875 0.390625 2.96875 1.734375 C 2.96875 3.359375 4.382812 4.171875 7.21875 4.171875 Z M 7.21875 4.171875 "/></g></g></g><g fill="#ffffff" fill-opacity="1"><g transform="translate(660.393686, 742.86495)"><g><path d="M 11.640625 0 L 9.5625 0 L 9.5625 -4.4375 L 0.859375 -4.4375 L 0.859375 -6.1875 L 9.0625 -18.59375 L 11.640625 -18.59375 L 11.640625 -6.1875 L 14.859375 -6.1875 L 14.859375 -4.4375 L 11.640625 -4.4375 Z M 3.421875 -6.453125 L 3.53125 -6.1875 L 9.5625 -6.1875 L 9.5625 -15.5625 L 9.265625 -15.625 Z M 3.421875 -6.453125 "/></g></g><g transform="translate(676.154103, 742.86495)"><g><path d="M 9.140625 0.265625 C 7.773438 0.265625 6.550781 -0.0625 5.46875 -0.71875 C 4.382812 -1.375 3.519531 -2.414062 2.875 -3.84375 C 2.226562 -5.269531 1.90625 -7.085938 1.90625 -9.296875 C 1.90625 -11.503906 2.226562 -13.320312 2.875 -14.75 C 3.519531 -16.175781 4.382812 -17.21875 5.46875 -17.875 C 6.550781 -18.53125 7.773438 -18.859375 9.140625 -18.859375 C 10.503906 -18.859375 11.726562 -18.53125 12.8125 -17.875 C 13.90625 -17.21875 14.769531 -16.175781 15.40625 -14.75 C 16.050781 -13.320312 16.375 -11.503906 16.375 -9.296875 C 16.375 -7.085938 16.050781 -5.269531 15.40625 -3.84375 C 14.769531 -2.414062 13.90625 -1.375 12.8125 -0.71875 C 11.726562 -0.0625 10.503906 0.265625 9.140625 0.265625 Z M 9.140625 -1.75 C 10.765625 -1.75 11.992188 -2.332031 12.828125 -3.5 C 13.660156 -4.664062 14.078125 -6.597656 14.078125 -9.296875 C 14.078125 -11.992188 13.660156 -13.925781 12.828125 -15.09375 C 11.992188 -16.257812 10.765625 -16.84375 9.140625 -16.84375 C 8.078125 -16.84375 7.179688 -16.59375 6.453125 -16.09375 C 5.722656 -15.601562 5.164062 -14.800781 4.78125 -13.6875 C 4.394531 -12.582031 4.203125 -11.117188 4.203125 -9.296875 C 4.203125 -7.472656 4.394531 -6.003906 4.78125 -4.890625 C 5.164062 -3.785156 5.722656 -2.984375 6.453125 -2.484375 C 7.179688 -1.992188 8.078125 -1.75 9.140625 -1.75 Z M 9.140625 -1.75 "/></g></g><g transform="translate(694.445854, 742.86495)"><g><path d="M 5.296875 -8.5 C 4.453125 -8.5 3.710938 -8.679688 3.078125 -9.046875 C 2.453125 -9.421875 1.957031 -9.992188 1.59375 -10.765625 C 1.238281 -11.535156 1.0625 -12.507812 1.0625 -13.6875 C 1.0625 -15.414062 1.441406 -16.707031 2.203125 -17.5625 C 2.972656 -18.425781 4.003906 -18.859375 5.296875 -18.859375 C 6.117188 -18.859375 6.84375 -18.671875 7.46875 -18.296875 C 8.101562 -17.929688 8.597656 -17.363281 8.953125 -16.59375 C 9.304688 -15.820312 9.484375 -14.851562 9.484375 -13.6875 C 9.484375 -12.507812 9.304688 -11.535156 8.953125 -10.765625 C 8.597656 -9.992188 8.101562 -9.421875 7.46875 -9.046875 C 6.84375 -8.679688 6.117188 -8.5 5.296875 -8.5 Z M 5.703125 0 L 3.859375 0 L 3.796875 -0.265625 L 16.234375 -18.59375 L 18.09375 -18.59375 L 18.15625 -18.328125 Z M 5.296875 -10.09375 C 6.085938 -10.09375 6.671875 -10.363281 7.046875 -10.90625 C 7.429688 -11.457031 7.625 -12.382812 7.625 -13.6875 C 7.625 -14.976562 7.429688 -15.894531 7.046875 -16.4375 C 6.671875 -16.988281 6.085938 -17.265625 5.296875 -17.265625 C 4.753906 -17.265625 4.3125 -17.148438 3.96875 -16.921875 C 3.625 -16.691406 3.363281 -16.3125 3.1875 -15.78125 C 3.007812 -15.257812 2.921875 -14.5625 2.921875 -13.6875 C 2.921875 -12.800781 3.007812 -12.09375 3.1875 -11.5625 C 3.363281 -11.039062 3.625 -10.664062 3.96875 -10.4375 C 4.3125 -10.207031 4.753906 -10.09375 5.296875 -10.09375 Z M 16.71875 0.265625 C 15.425781 0.265625 14.394531 -0.160156 13.625 -1.015625 C 12.863281 -1.878906 12.484375 -3.175781 12.484375 -4.90625 C 12.484375 -6.644531 12.863281 -7.941406 13.625 -8.796875 C 14.394531 -9.660156 15.425781 -10.09375 16.71875 -10.09375 C 17.539062 -10.09375 18.265625 -9.90625 18.890625 -9.53125 C 19.523438 -9.164062 20.019531 -8.597656 20.375 -7.828125 C 20.726562 -7.054688 20.90625 -6.082031 20.90625 -4.90625 C 20.90625 -3.738281 20.726562 -2.769531 20.375 -2 C 20.019531 -1.226562 19.523438 -0.65625 18.890625 -0.28125 C 18.265625 0.0820312 17.539062 0.265625 16.71875 0.265625 Z M 16.71875 -1.328125 C 17.507812 -1.328125 18.09375 -1.597656 18.46875 -2.140625 C 18.851562 -2.691406 19.046875 -3.613281 19.046875 -4.90625 C 19.046875 -6.207031 18.851562 -7.128906 18.46875 -7.671875 C 18.09375 -8.222656 17.507812 -8.5 16.71875 -8.5 C 15.90625 -8.5 15.304688 -8.226562 14.921875 -7.6875 C 14.535156 -7.144531 14.34375 -6.21875 14.34375 -4.90625 C 14.34375 -3.601562 14.535156 -2.679688 14.921875 -2.140625 C 15.304688 -1.597656 15.90625 -1.328125 16.71875 -1.328125 Z M 16.71875 -1.328125 "/></g></g></g><g fill="#ffffff" fill-opacity="1"><g transform="translate(0.0394212, 514.836234)"><g><path d="M 14.515625 -18.59375 L 14.515625 -16.734375 L 8.6875 -16.734375 L 8.6875 0 L 6.515625 0 L 6.515625 -16.734375 L 0.6875 -16.734375 L 0.6875 -18.59375 Z M 14.515625 -18.59375 "/></g></g><g transform="translate(15.227426, 514.836234)"><g><path d="M 13.359375 -6.53125 L 3.71875 -6.53125 C 3.78125 -4.832031 4.191406 -3.582031 4.953125 -2.78125 C 5.710938 -1.988281 6.753906 -1.59375 8.078125 -1.59375 C 9.078125 -1.59375 9.878906 -1.769531 10.484375 -2.125 C 11.097656 -2.476562 11.578125 -3.035156 11.921875 -3.796875 L 12.203125 -3.796875 L 13.546875 -3 C 13.140625 -1.976562 12.488281 -1.175781 11.59375 -0.59375 C 10.695312 -0.0195312 9.523438 0.265625 8.078125 0.265625 C 6.722656 0.265625 5.554688 0 4.578125 -0.53125 C 3.597656 -1.0625 2.84375 -1.867188 2.3125 -2.953125 C 1.789062 -4.046875 1.53125 -5.394531 1.53125 -7 C 1.53125 -8.601562 1.804688 -9.953125 2.359375 -11.046875 C 2.921875 -12.140625 3.679688 -12.953125 4.640625 -13.484375 C 5.609375 -14.023438 6.710938 -14.296875 7.953125 -14.296875 C 9.742188 -14.296875 11.144531 -13.785156 12.15625 -12.765625 C 13.164062 -11.753906 13.675781 -10.253906 13.6875 -8.265625 C 13.6875 -7.484375 13.671875 -6.957031 13.640625 -6.6875 Z M 11.640625 -8.265625 C 11.609375 -9.753906 11.273438 -10.835938 10.640625 -11.515625 C 10.015625 -12.203125 9.117188 -12.546875 7.953125 -12.546875 C 6.722656 -12.546875 5.753906 -12.203125 5.046875 -11.515625 C 4.347656 -10.835938 3.925781 -9.753906 3.78125 -8.265625 Z M 11.640625 -8.265625 "/></g></g><g transform="translate(30.186466, 514.836234)"><g><path d="M 5.78125 0.265625 C 4.40625 0.265625 3.328125 -0.09375 2.546875 -0.8125 C 1.773438 -1.53125 1.390625 -2.5625 1.390625 -3.90625 C 1.390625 -4.738281 1.5625 -5.441406 1.90625 -6.015625 C 2.25 -6.585938 2.78125 -7.050781 3.5 -7.40625 C 4.21875 -7.769531 5.160156 -8.046875 6.328125 -8.234375 C 7.335938 -8.410156 8.109375 -8.601562 8.640625 -8.8125 C 9.171875 -9.019531 9.523438 -9.253906 9.703125 -9.515625 C 9.890625 -9.785156 9.984375 -10.117188 9.984375 -10.515625 C 9.984375 -11.148438 9.765625 -11.632812 9.328125 -11.96875 C 8.890625 -12.3125 8.1875 -12.484375 7.21875 -12.484375 C 6.3125 -12.484375 5.535156 -12.304688 4.890625 -11.953125 C 4.242188 -11.609375 3.648438 -11.085938 3.109375 -10.390625 L 2.84375 -10.390625 L 1.828125 -11.828125 C 2.421875 -12.578125 3.175781 -13.175781 4.09375 -13.625 C 5.007812 -14.070312 6.050781 -14.296875 7.21875 -14.296875 C 8.875 -14.296875 10.09375 -13.929688 10.875 -13.203125 C 11.664062 -12.484375 12.0625 -11.484375 12.0625 -10.203125 L 12.0625 -2.765625 C 12.0625 -1.984375 12.390625 -1.59375 13.046875 -1.59375 C 13.265625 -1.59375 13.476562 -1.628906 13.6875 -1.703125 L 13.859375 -1.65625 L 14.109375 -0.21875 C 13.953125 -0.113281 13.75 -0.0351562 13.5 0.015625 C 13.25 0.078125 12.992188 0.109375 12.734375 0.109375 C 11.960938 0.109375 11.378906 -0.0625 10.984375 -0.40625 C 10.585938 -0.75 10.332031 -1.25 10.21875 -1.90625 L 9.953125 -1.9375 C 9.554688 -1.195312 9.019531 -0.644531 8.34375 -0.28125 C 7.664062 0.0820312 6.8125 0.265625 5.78125 0.265625 Z M 6.25 -1.390625 C 7.03125 -1.390625 7.703125 -1.566406 8.265625 -1.921875 C 8.835938 -2.285156 9.273438 -2.789062 9.578125 -3.4375 C 9.890625 -4.09375 10.046875 -4.847656 10.046875 -5.703125 L 10.046875 -7.484375 L 9.8125 -7.546875 C 9.488281 -7.328125 9.101562 -7.140625 8.65625 -6.984375 C 8.207031 -6.835938 7.582031 -6.707031 6.78125 -6.59375 C 5.96875 -6.476562 5.320312 -6.304688 4.84375 -6.078125 C 4.363281 -5.847656 4.019531 -5.554688 3.8125 -5.203125 C 3.613281 -4.859375 3.515625 -4.425781 3.515625 -3.90625 C 3.515625 -3.082031 3.753906 -2.457031 4.234375 -2.03125 C 4.710938 -1.601562 5.382812 -1.390625 6.25 -1.390625 Z M 6.25 -1.390625 "/></g></g><g transform="translate(44.700296, 514.836234)"><g><path d="M 2.4375 0 L 2.4375 -14.03125 L 4.40625 -14.03125 L 4.40625 -11.953125 L 4.6875 -11.90625 C 5.15625 -12.695312 5.726562 -13.289062 6.40625 -13.6875 C 7.082031 -14.09375 7.890625 -14.296875 8.828125 -14.296875 C 9.910156 -14.296875 10.75 -14.085938 11.34375 -13.671875 C 11.9375 -13.265625 12.398438 -12.601562 12.734375 -11.6875 L 13 -11.6875 C 13.476562 -12.539062 14.070312 -13.1875 14.78125 -13.625 C 15.488281 -14.070312 16.363281 -14.296875 17.40625 -14.296875 C 18.84375 -14.296875 19.914062 -13.90625 20.625 -13.125 C 21.332031 -12.34375 21.6875 -11.15625 21.6875 -9.5625 L 21.6875 0 L 19.609375 0 L 19.609375 -9.515625 C 19.609375 -10.535156 19.394531 -11.285156 18.96875 -11.765625 C 18.539062 -12.242188 17.851562 -12.484375 16.90625 -12.484375 C 15.78125 -12.484375 14.863281 -12.078125 14.15625 -11.265625 C 13.445312 -10.453125 13.09375 -9.113281 13.09375 -7.25 L 13.09375 0 L 11.03125 0 L 11.03125 -9.515625 C 11.03125 -10.535156 10.8125 -11.285156 10.375 -11.765625 C 9.945312 -12.242188 9.257812 -12.484375 8.3125 -12.484375 C 7.195312 -12.484375 6.285156 -12.085938 5.578125 -11.296875 C 4.867188 -10.515625 4.515625 -9.238281 4.515625 -7.46875 L 4.515625 0 Z M 2.4375 0 "/></g></g></g><g fill="#ffffff" fill-opacity="1"><g transform="translate(7.035571, 550.65652)"><g><path d="M 1.125 -0.859375 C 1.125 -1.878906 1.234375 -2.703125 1.453125 -3.328125 C 1.679688 -3.953125 2.066406 -4.535156 2.609375 -5.078125 C 3.148438 -5.628906 4.015625 -6.335938 5.203125 -7.203125 L 7.25 -8.6875 C 8 -9.238281 8.613281 -9.742188 9.09375 -10.203125 C 9.570312 -10.671875 9.945312 -11.175781 10.21875 -11.71875 C 10.488281 -12.269531 10.625 -12.890625 10.625 -13.578125 C 10.625 -14.671875 10.332031 -15.5 9.75 -16.0625 C 9.164062 -16.625 8.25 -16.90625 7 -16.90625 C 6.019531 -16.90625 5.148438 -16.675781 4.390625 -16.21875 C 3.628906 -15.757812 3.019531 -15.109375 2.5625 -14.265625 L 2.265625 -14.21875 L 0.953125 -15.59375 C 1.578125 -16.613281 2.398438 -17.410156 3.421875 -17.984375 C 4.441406 -18.566406 5.632812 -18.859375 7 -18.859375 C 8.320312 -18.859375 9.421875 -18.632812 10.296875 -18.1875 C 11.171875 -17.738281 11.816406 -17.117188 12.234375 -16.328125 C 12.648438 -15.535156 12.859375 -14.617188 12.859375 -13.578125 C 12.859375 -12.742188 12.679688 -11.960938 12.328125 -11.234375 C 11.984375 -10.515625 11.492188 -9.835938 10.859375 -9.203125 C 10.222656 -8.566406 9.425781 -7.898438 8.46875 -7.203125 L 6.390625 -5.6875 C 5.617188 -5.113281 5.023438 -4.628906 4.609375 -4.234375 C 4.203125 -3.835938 3.898438 -3.445312 3.703125 -3.0625 C 3.515625 -2.6875 3.421875 -2.269531 3.421875 -1.8125 L 12.859375 -1.8125 L 12.859375 0 L 1.125 0 Z M 1.125 -0.859375 "/></g></g><g transform="translate(21.333157, 550.65652)"><g><path d="M 9.140625 0.265625 C 7.773438 0.265625 6.550781 -0.0625 5.46875 -0.71875 C 4.382812 -1.375 3.519531 -2.414062 2.875 -3.84375 C 2.226562 -5.269531 1.90625 -7.085938 1.90625 -9.296875 C 1.90625 -11.503906 2.226562 -13.320312 2.875 -14.75 C 3.519531 -16.175781 4.382812 -17.21875 5.46875 -17.875 C 6.550781 -18.53125 7.773438 -18.859375 9.140625 -18.859375 C 10.503906 -18.859375 11.726562 -18.53125 12.8125 -17.875 C 13.90625 -17.21875 14.769531 -16.175781 15.40625 -14.75 C 16.050781 -13.320312 16.375 -11.503906 16.375 -9.296875 C 16.375 -7.085938 16.050781 -5.269531 15.40625 -3.84375 C 14.769531 -2.414062 13.90625 -1.375 12.8125 -0.71875 C 11.726562 -0.0625 10.503906 0.265625 9.140625 0.265625 Z M 9.140625 -1.75 C 10.765625 -1.75 11.992188 -2.332031 12.828125 -3.5 C 13.660156 -4.664062 14.078125 -6.597656 14.078125 -9.296875 C 14.078125 -11.992188 13.660156 -13.925781 12.828125 -15.09375 C 11.992188 -16.257812 10.765625 -16.84375 9.140625 -16.84375 C 8.078125 -16.84375 7.179688 -16.59375 6.453125 -16.09375 C 5.722656 -15.601562 5.164062 -14.800781 4.78125 -13.6875 C 4.394531 -12.582031 4.203125 -11.117188 4.203125 -9.296875 C 4.203125 -7.472656 4.394531 -6.003906 4.78125 -4.890625 C 5.164062 -3.785156 5.722656 -2.984375 6.453125 -2.484375 C 7.179688 -1.992188 8.078125 -1.75 9.140625 -1.75 Z M 9.140625 -1.75 "/></g></g><g transform="translate(39.624908, 550.65652)"><g><path d="M 5.296875 -8.5 C 4.453125 -8.5 3.710938 -8.679688 3.078125 -9.046875 C 2.453125 -9.421875 1.957031 -9.992188 1.59375 -10.765625 C 1.238281 -11.535156 1.0625 -12.507812 1.0625 -13.6875 C 1.0625 -15.414062 1.441406 -16.707031 2.203125 -17.5625 C 2.972656 -18.425781 4.003906 -18.859375 5.296875 -18.859375 C 6.117188 -18.859375 6.84375 -18.671875 7.46875 -18.296875 C 8.101562 -17.929688 8.597656 -17.363281 8.953125 -16.59375 C 9.304688 -15.820312 9.484375 -14.851562 9.484375 -13.6875 C 9.484375 -12.507812 9.304688 -11.535156 8.953125 -10.765625 C 8.597656 -9.992188 8.101562 -9.421875 7.46875 -9.046875 C 6.84375 -8.679688 6.117188 -8.5 5.296875 -8.5 Z M 5.703125 0 L 3.859375 0 L 3.796875 -0.265625 L 16.234375 -18.59375 L 18.09375 -18.59375 L 18.15625 -18.328125 Z M 5.296875 -10.09375 C 6.085938 -10.09375 6.671875 -10.363281 7.046875 -10.90625 C 7.429688 -11.457031 7.625 -12.382812 7.625 -13.6875 C 7.625 -14.976562 7.429688 -15.894531 7.046875 -16.4375 C 6.671875 -16.988281 6.085938 -17.265625 5.296875 -17.265625 C 4.753906 -17.265625 4.3125 -17.148438 3.96875 -16.921875 C 3.625 -16.691406 3.363281 -16.3125 3.1875 -15.78125 C 3.007812 -15.257812 2.921875 -14.5625 2.921875 -13.6875 C 2.921875 -12.800781 3.007812 -12.09375 3.1875 -11.5625 C 3.363281 -11.039062 3.625 -10.664062 3.96875 -10.4375 C 4.3125 -10.207031 4.753906 -10.09375 5.296875 -10.09375 Z M 16.71875 0.265625 C 15.425781 0.265625 14.394531 -0.160156 13.625 -1.015625 C 12.863281 -1.878906 12.484375 -3.175781 12.484375 -4.90625 C 12.484375 -6.644531 12.863281 -7.941406 13.625 -8.796875 C 14.394531 -9.660156 15.425781 -10.09375 16.71875 -10.09375 C 17.539062 -10.09375 18.265625 -9.90625 18.890625 -9.53125 C 19.523438 -9.164062 20.019531 -8.597656 20.375 -7.828125 C 20.726562 -7.054688 20.90625 -6.082031 20.90625 -4.90625 C 20.90625 -3.738281 20.726562 -2.769531 20.375 -2 C 20.019531 -1.226562 19.523438 -0.65625 18.890625 -0.28125 C 18.265625 0.0820312 17.539062 0.265625 16.71875 0.265625 Z M 16.71875 -1.328125 C 17.507812 -1.328125 18.09375 -1.597656 18.46875 -2.140625 C 18.851562 -2.691406 19.046875 -3.613281 19.046875 -4.90625 C 19.046875 -6.207031 18.851562 -7.128906 18.46875 -7.671875 C 18.09375 -8.222656 17.507812 -8.5 16.71875 -8.5 C 15.90625 -8.5 15.304688 -8.226562 14.921875 -7.6875 C 14.535156 -7.144531 14.34375 -6.21875 14.34375 -4.90625 C 14.34375 -3.601562 14.535156 -2.679688 14.921875 -2.140625 C 15.304688 -1.597656 15.90625 -1.328125 16.71875 -1.328125 Z M 16.71875 -1.328125 "/></g></g></g><g fill="#ffffff" fill-opacity="1"><g transform="translate(63.435329, 85.045192)"><g><path d="M 5 -18.59375 L 5 -1.8125 L 13.953125 -1.8125 L 13.953125 0 L 2.8125 0 L 2.8125 -18.59375 Z M 5 -18.59375 "/></g></g><g transform="translate(78.178124, 85.045192)"><g><path d="M 3.484375 -16.734375 C 3.046875 -16.734375 2.6875 -16.867188 2.40625 -17.140625 C 2.132812 -17.421875 2 -17.773438 2 -18.203125 C 2 -18.617188 2.132812 -18.960938 2.40625 -19.234375 C 2.6875 -19.515625 3.046875 -19.65625 3.484375 -19.65625 C 3.921875 -19.65625 4.273438 -19.515625 4.546875 -19.234375 C 4.828125 -18.960938 4.96875 -18.617188 4.96875 -18.203125 C 4.96875 -17.773438 4.828125 -17.421875 4.546875 -17.140625 C 4.273438 -16.867188 3.921875 -16.734375 3.484375 -16.734375 Z M 2.4375 0 L 2.4375 -14.03125 L 4.515625 -14.03125 L 4.515625 0 Z M 2.4375 0 "/></g></g><g transform="translate(85.136113, 85.045192)"><g><path d="M 12.21875 5.6875 L 12.21875 -1.96875 L 11.953125 -2.015625 C 11.398438 -1.234375 10.734375 -0.65625 9.953125 -0.28125 C 9.171875 0.0820312 8.269531 0.265625 7.25 0.265625 C 6.132812 0.265625 5.144531 0 4.28125 -0.53125 C 3.414062 -1.0625 2.738281 -1.863281 2.25 -2.9375 C 1.769531 -4.007812 1.53125 -5.332031 1.53125 -6.90625 C 1.53125 -8.539062 1.785156 -9.910156 2.296875 -11.015625 C 2.804688 -12.117188 3.507812 -12.941406 4.40625 -13.484375 C 5.300781 -14.023438 6.335938 -14.296875 7.515625 -14.296875 C 8.453125 -14.296875 9.296875 -14.117188 10.046875 -13.765625 C 10.796875 -13.421875 11.429688 -12.84375 11.953125 -12.03125 L 12.21875 -12.078125 L 12.21875 -14.03125 L 14.296875 -14.03125 L 14.296875 5.6875 Z M 7.921875 -1.59375 C 8.765625 -1.59375 9.507812 -1.78125 10.15625 -2.15625 C 10.800781 -2.53125 11.304688 -3.113281 11.671875 -3.90625 C 12.035156 -4.707031 12.21875 -5.707031 12.21875 -6.90625 C 12.21875 -8.78125 11.828125 -10.171875 11.046875 -11.078125 C 10.265625 -11.984375 9.222656 -12.4375 7.921875 -12.4375 C 5.117188 -12.4375 3.71875 -10.59375 3.71875 -6.90625 C 3.71875 -5.082031 4.082031 -3.738281 4.8125 -2.875 C 5.539062 -2.019531 6.578125 -1.59375 7.921875 -1.59375 Z M 7.921875 -1.59375 "/></g></g><g transform="translate(101.888711, 85.045192)"><g><path d="M 6.9375 0.265625 C 5.34375 0.265625 4.15625 -0.148438 3.375 -0.984375 C 2.601562 -1.828125 2.21875 -3.0625 2.21875 -4.6875 L 2.21875 -14.03125 L 4.296875 -14.03125 L 4.296875 -4.734375 C 4.296875 -2.597656 5.296875 -1.53125 7.296875 -1.53125 C 8.566406 -1.53125 9.570312 -1.945312 10.3125 -2.78125 C 11.050781 -3.613281 11.421875 -4.960938 11.421875 -6.828125 L 11.421875 -14.03125 L 13.5 -14.03125 L 13.5 0 L 11.53125 0 L 11.53125 -2.203125 L 11.265625 -2.265625 C 10.785156 -1.410156 10.207031 -0.773438 9.53125 -0.359375 C 8.851562 0.0546875 7.988281 0.265625 6.9375 0.265625 Z M 6.9375 0.265625 "/></g></g><g transform="translate(117.827212, 85.045192)"><g><path d="M 3.484375 -16.734375 C 3.046875 -16.734375 2.6875 -16.867188 2.40625 -17.140625 C 2.132812 -17.421875 2 -17.773438 2 -18.203125 C 2 -18.617188 2.132812 -18.960938 2.40625 -19.234375 C 2.6875 -19.515625 3.046875 -19.65625 3.484375 -19.65625 C 3.921875 -19.65625 4.273438 -19.515625 4.546875 -19.234375 C 4.828125 -18.960938 4.96875 -18.617188 4.96875 -18.203125 C 4.96875 -17.773438 4.828125 -17.421875 4.546875 -17.140625 C 4.273438 -16.867188 3.921875 -16.734375 3.484375 -16.734375 Z M 2.4375 0 L 2.4375 -14.03125 L 4.515625 -14.03125 L 4.515625 0 Z M 2.4375 0 "/></g></g><g transform="translate(124.785201, 85.045192)"><g><path d="M 7.28125 0.265625 C 6.144531 0.265625 5.144531 0 4.28125 -0.53125 C 3.425781 -1.070312 2.753906 -1.882812 2.265625 -2.96875 C 1.773438 -4.0625 1.53125 -5.40625 1.53125 -7 C 1.53125 -8.601562 1.785156 -9.953125 2.296875 -11.046875 C 2.804688 -12.140625 3.507812 -12.953125 4.40625 -13.484375 C 5.300781 -14.023438 6.335938 -14.296875 7.515625 -14.296875 C 8.453125 -14.296875 9.289062 -14.117188 10.03125 -13.765625 C 10.78125 -13.410156 11.421875 -12.832031 11.953125 -12.03125 L 12.21875 -12.078125 L 12.21875 -19.65625 L 14.296875 -19.65625 L 14.296875 0 L 12.21875 0 L 12.21875 -2.046875 L 11.953125 -2.09375 C 11.492188 -1.40625 10.875 -0.835938 10.09375 -0.390625 C 9.3125 0.046875 8.375 0.265625 7.28125 0.265625 Z M 7.921875 -1.59375 C 9.222656 -1.59375 10.265625 -2.035156 11.046875 -2.921875 C 11.828125 -3.816406 12.21875 -5.175781 12.21875 -7 C 12.21875 -8.832031 11.828125 -10.195312 11.046875 -11.09375 C 10.265625 -11.988281 9.222656 -12.4375 7.921875 -12.4375 C 6.578125 -12.4375 5.539062 -12 4.8125 -11.125 C 4.082031 -10.25 3.71875 -8.875 3.71875 -7 C 3.71875 -3.394531 5.117188 -1.59375 7.921875 -1.59375 Z M 7.921875 -1.59375 "/></g></g><g transform="translate(141.537799, 85.045192)"><g><path d="M 3.484375 -16.734375 C 3.046875 -16.734375 2.6875 -16.867188 2.40625 -17.140625 C 2.132812 -17.421875 2 -17.773438 2 -18.203125 C 2 -18.617188 2.132812 -18.960938 2.40625 -19.234375 C 2.6875 -19.515625 3.046875 -19.65625 3.484375 -19.65625 C 3.921875 -19.65625 4.273438 -19.515625 4.546875 -19.234375 C 4.828125 -18.960938 4.96875 -18.617188 4.96875 -18.203125 C 4.96875 -17.773438 4.828125 -17.421875 4.546875 -17.140625 C 4.273438 -16.867188 3.921875 -16.734375 3.484375 -16.734375 Z M 2.4375 0 L 2.4375 -14.03125 L 4.515625 -14.03125 L 4.515625 0 Z M 2.4375 0 "/></g></g><g transform="translate(148.495788, 85.045192)"><g><path d="M 9.484375 -2.21875 L 10.15625 -0.734375 C 9.820312 -0.398438 9.382812 -0.148438 8.84375 0.015625 C 8.300781 0.179688 7.71875 0.265625 7.09375 0.265625 C 4.414062 0.265625 3.078125 -1.085938 3.078125 -3.796875 L 3.078125 -12.34375 L 0.640625 -12.34375 L 0.640625 -14.046875 L 3.078125 -14.046875 L 3.078125 -17 L 5.15625 -17.34375 L 5.15625 -14.046875 L 9.671875 -14.046875 L 9.671875 -12.34375 L 5.15625 -12.34375 L 5.15625 -4 C 5.15625 -2.394531 5.851562 -1.59375 7.25 -1.59375 C 8.007812 -1.59375 8.664062 -1.800781 9.21875 -2.21875 Z M 9.484375 -2.21875 "/></g></g><g transform="translate(159.180816, 85.045192)"><g><path d="M 2.8125 5.953125 C 2.332031 5.953125 1.882812 5.910156 1.46875 5.828125 C 1.0625 5.742188 0.710938 5.632812 0.421875 5.5 L 0.796875 3.859375 L 1.03125 3.78125 C 1.226562 3.882812 1.476562 3.96875 1.78125 4.03125 C 2.09375 4.101562 2.410156 4.140625 2.734375 4.140625 C 3.304688 4.140625 3.773438 4.0625 4.140625 3.90625 C 4.515625 3.757812 4.832031 3.507812 5.09375 3.15625 C 5.363281 2.800781 5.613281 2.316406 5.84375 1.703125 L 6.34375 0.328125 L 0.71875 -14.03125 L 2.953125 -14.03125 L 7.359375 -2.578125 L 7.609375 -2.578125 L 11.875 -14.03125 L 14 -14.03125 L 7.734375 2.203125 C 7.378906 3.097656 6.976562 3.816406 6.53125 4.359375 C 6.09375 4.910156 5.570312 5.3125 4.96875 5.5625 C 4.363281 5.820312 3.644531 5.953125 2.8125 5.953125 Z M 2.8125 5.953125 "/></g></g></g><g fill="#ffffff" fill-opacity="1"><g transform="translate(91.407207, 120.865477)"><g><path d="M 1.125 -0.859375 C 1.125 -1.878906 1.234375 -2.703125 1.453125 -3.328125 C 1.679688 -3.953125 2.066406 -4.535156 2.609375 -5.078125 C 3.148438 -5.628906 4.015625 -6.335938 5.203125 -7.203125 L 7.25 -8.6875 C 8 -9.238281 8.613281 -9.742188 9.09375 -10.203125 C 9.570312 -10.671875 9.945312 -11.175781 10.21875 -11.71875 C 10.488281 -12.269531 10.625 -12.890625 10.625 -13.578125 C 10.625 -14.671875 10.332031 -15.5 9.75 -16.0625 C 9.164062 -16.625 8.25 -16.90625 7 -16.90625 C 6.019531 -16.90625 5.148438 -16.675781 4.390625 -16.21875 C 3.628906 -15.757812 3.019531 -15.109375 2.5625 -14.265625 L 2.265625 -14.21875 L 0.953125 -15.59375 C 1.578125 -16.613281 2.398438 -17.410156 3.421875 -17.984375 C 4.441406 -18.566406 5.632812 -18.859375 7 -18.859375 C 8.320312 -18.859375 9.421875 -18.632812 10.296875 -18.1875 C 11.171875 -17.738281 11.816406 -17.117188 12.234375 -16.328125 C 12.648438 -15.535156 12.859375 -14.617188 12.859375 -13.578125 C 12.859375 -12.742188 12.679688 -11.960938 12.328125 -11.234375 C 11.984375 -10.515625 11.492188 -9.835938 10.859375 -9.203125 C 10.222656 -8.566406 9.425781 -7.898438 8.46875 -7.203125 L 6.390625 -5.6875 C 5.617188 -5.113281 5.023438 -4.628906 4.609375 -4.234375 C 4.203125 -3.835938 3.898438 -3.445312 3.703125 -3.0625 C 3.515625 -2.6875 3.421875 -2.269531 3.421875 -1.8125 L 12.859375 -1.8125 L 12.859375 0 L 1.125 0 Z M 1.125 -0.859375 "/></g></g><g transform="translate(105.704793, 120.865477)"><g><path d="M 9.140625 0.265625 C 7.773438 0.265625 6.550781 -0.0625 5.46875 -0.71875 C 4.382812 -1.375 3.519531 -2.414062 2.875 -3.84375 C 2.226562 -5.269531 1.90625 -7.085938 1.90625 -9.296875 C 1.90625 -11.503906 2.226562 -13.320312 2.875 -14.75 C 3.519531 -16.175781 4.382812 -17.21875 5.46875 -17.875 C 6.550781 -18.53125 7.773438 -18.859375 9.140625 -18.859375 C 10.503906 -18.859375 11.726562 -18.53125 12.8125 -17.875 C 13.90625 -17.21875 14.769531 -16.175781 15.40625 -14.75 C 16.050781 -13.320312 16.375 -11.503906 16.375 -9.296875 C 16.375 -7.085938 16.050781 -5.269531 15.40625 -3.84375 C 14.769531 -2.414062 13.90625 -1.375 12.8125 -0.71875 C 11.726562 -0.0625 10.503906 0.265625 9.140625 0.265625 Z M 9.140625 -1.75 C 10.765625 -1.75 11.992188 -2.332031 12.828125 -3.5 C 13.660156 -4.664062 14.078125 -6.597656 14.078125 -9.296875 C 14.078125 -11.992188 13.660156 -13.925781 12.828125 -15.09375 C 11.992188 -16.257812 10.765625 -16.84375 9.140625 -16.84375 C 8.078125 -16.84375 7.179688 -16.59375 6.453125 -16.09375 C 5.722656 -15.601562 5.164062 -14.800781 4.78125 -13.6875 C 4.394531 -12.582031 4.203125 -11.117188 4.203125 -9.296875 C 4.203125 -7.472656 4.394531 -6.003906 4.78125 -4.890625 C 5.164062 -3.785156 5.722656 -2.984375 6.453125 -2.484375 C 7.179688 -1.992188 8.078125 -1.75 9.140625 -1.75 Z M 9.140625 -1.75 "/></g></g><g transform="translate(123.996544, 120.865477)"><g><path d="M 5.296875 -8.5 C 4.453125 -8.5 3.710938 -8.679688 3.078125 -9.046875 C 2.453125 -9.421875 1.957031 -9.992188 1.59375 -10.765625 C 1.238281 -11.535156 1.0625 -12.507812 1.0625 -13.6875 C 1.0625 -15.414062 1.441406 -16.707031 2.203125 -17.5625 C 2.972656 -18.425781 4.003906 -18.859375 5.296875 -18.859375 C 6.117188 -18.859375 6.84375 -18.671875 7.46875 -18.296875 C 8.101562 -17.929688 8.597656 -17.363281 8.953125 -16.59375 C 9.304688 -15.820312 9.484375 -14.851562 9.484375 -13.6875 C 9.484375 -12.507812 9.304688 -11.535156 8.953125 -10.765625 C 8.597656 -9.992188 8.101562 -9.421875 7.46875 -9.046875 C 6.84375 -8.679688 6.117188 -8.5 5.296875 -8.5 Z M 5.703125 0 L 3.859375 0 L 3.796875 -0.265625 L 16.234375 -18.59375 L 18.09375 -18.59375 L 18.15625 -18.328125 Z M 5.296875 -10.09375 C 6.085938 -10.09375 6.671875 -10.363281 7.046875 -10.90625 C 7.429688 -11.457031 7.625 -12.382812 7.625 -13.6875 C 7.625 -14.976562 7.429688 -15.894531 7.046875 -16.4375 C 6.671875 -16.988281 6.085938 -17.265625 5.296875 -17.265625 C 4.753906 -17.265625 4.3125 -17.148438 3.96875 -16.921875 C 3.625 -16.691406 3.363281 -16.3125 3.1875 -15.78125 C 3.007812 -15.257812 2.921875 -14.5625 2.921875 -13.6875 C 2.921875 -12.800781 3.007812 -12.09375 3.1875 -11.5625 C 3.363281 -11.039062 3.625 -10.664062 3.96875 -10.4375 C 4.3125 -10.207031 4.753906 -10.09375 5.296875 -10.09375 Z M 16.71875 0.265625 C 15.425781 0.265625 14.394531 -0.160156 13.625 -1.015625 C 12.863281 -1.878906 12.484375 -3.175781 12.484375 -4.90625 C 12.484375 -6.644531 12.863281 -7.941406 13.625 -8.796875 C 14.394531 -9.660156 15.425781 -10.09375 16.71875 -10.09375 C 17.539062 -10.09375 18.265625 -9.90625 18.890625 -9.53125 C 19.523438 -9.164062 20.019531 -8.597656 20.375 -7.828125 C 20.726562 -7.054688 20.90625 -6.082031 20.90625 -4.90625 C 20.90625 -3.738281 20.726562 -2.769531 20.375 -2 C 20.019531 -1.226562 19.523438 -0.65625 18.890625 -0.28125 C 18.265625 0.0820312 17.539062 0.265625 16.71875 0.265625 Z M 16.71875 -1.328125 C 17.507812 -1.328125 18.09375 -1.597656 18.46875 -2.140625 C 18.851562 -2.691406 19.046875 -3.613281 19.046875 -4.90625 C 19.046875 -6.207031 18.851562 -7.128906 18.46875 -7.671875 C 18.09375 -8.222656 17.507812 -8.5 16.71875 -8.5 C 15.90625 -8.5 15.304688 -8.226562 14.921875 -7.6875 C 14.535156 -7.144531 14.34375 -6.21875 14.34375 -4.90625 C 14.34375 -3.601562 14.535156 -2.679688 14.921875 -2.140625 C 15.304688 -1.597656 15.90625 -1.328125 16.71875 -1.328125 Z M 16.71875 -1.328125 "/></g></g></g><g fill="#ffffff" fill-opacity="1"><g transform="translate(433.34823, 30.442811)"><g><path d="M 8.828125 -18.59375 C 10.710938 -18.59375 12.328125 -18.253906 13.671875 -17.578125 C 15.023438 -16.910156 16.066406 -15.882812 16.796875 -14.5 C 17.535156 -13.113281 17.90625 -11.378906 17.90625 -9.296875 C 17.90625 -7.210938 17.535156 -5.476562 16.796875 -4.09375 C 16.066406 -2.707031 15.023438 -1.675781 13.671875 -1 C 12.328125 -0.332031 10.710938 0 8.828125 0 L 2.8125 0 L 2.8125 -18.59375 Z M 8.609375 -1.859375 C 10.160156 -1.859375 11.441406 -2.097656 12.453125 -2.578125 C 13.472656 -3.066406 14.242188 -3.859375 14.765625 -4.953125 C 15.296875 -6.046875 15.5625 -7.492188 15.5625 -9.296875 C 15.5625 -11.109375 15.296875 -12.554688 14.765625 -13.640625 C 14.242188 -14.734375 13.472656 -15.519531 12.453125 -16 C 11.441406 -16.488281 10.160156 -16.734375 8.609375 -16.734375 L 5 -16.734375 L 5 -1.859375 Z M 8.609375 -1.859375 "/></g></g><g transform="translate(453.115532, 30.442811)"><g><path d="M 13.359375 -6.53125 L 3.71875 -6.53125 C 3.78125 -4.832031 4.191406 -3.582031 4.953125 -2.78125 C 5.710938 -1.988281 6.753906 -1.59375 8.078125 -1.59375 C 9.078125 -1.59375 9.878906 -1.769531 10.484375 -2.125 C 11.097656 -2.476562 11.578125 -3.035156 11.921875 -3.796875 L 12.203125 -3.796875 L 13.546875 -3 C 13.140625 -1.976562 12.488281 -1.175781 11.59375 -0.59375 C 10.695312 -0.0195312 9.523438 0.265625 8.078125 0.265625 C 6.722656 0.265625 5.554688 0 4.578125 -0.53125 C 3.597656 -1.0625 2.84375 -1.867188 2.3125 -2.953125 C 1.789062 -4.046875 1.53125 -5.394531 1.53125 -7 C 1.53125 -8.601562 1.804688 -9.953125 2.359375 -11.046875 C 2.921875 -12.140625 3.679688 -12.953125 4.640625 -13.484375 C 5.609375 -14.023438 6.710938 -14.296875 7.953125 -14.296875 C 9.742188 -14.296875 11.144531 -13.785156 12.15625 -12.765625 C 13.164062 -11.753906 13.675781 -10.253906 13.6875 -8.265625 C 13.6875 -7.484375 13.671875 -6.957031 13.640625 -6.6875 Z M 11.640625 -8.265625 C 11.609375 -9.753906 11.273438 -10.835938 10.640625 -11.515625 C 10.015625 -12.203125 9.117188 -12.546875 7.953125 -12.546875 C 6.722656 -12.546875 5.753906 -12.203125 5.046875 -11.515625 C 4.347656 -10.835938 3.925781 -9.753906 3.78125 -8.265625 Z M 11.640625 -8.265625 "/></g></g><g transform="translate(468.074572, 30.442811)"><g><path d="M 8.875 0 L 6.03125 0 L 0.6875 -14.03125 L 2.921875 -14.03125 L 7.34375 -2.359375 L 7.625 -2.359375 L 12 -14.03125 L 14.1875 -14.03125 Z M 8.875 0 "/></g></g><g transform="translate(482.94457, 30.442811)"><g><path d="M 13.359375 -6.53125 L 3.71875 -6.53125 C 3.78125 -4.832031 4.191406 -3.582031 4.953125 -2.78125 C 5.710938 -1.988281 6.753906 -1.59375 8.078125 -1.59375 C 9.078125 -1.59375 9.878906 -1.769531 10.484375 -2.125 C 11.097656 -2.476562 11.578125 -3.035156 11.921875 -3.796875 L 12.203125 -3.796875 L 13.546875 -3 C 13.140625 -1.976562 12.488281 -1.175781 11.59375 -0.59375 C 10.695312 -0.0195312 9.523438 0.265625 8.078125 0.265625 C 6.722656 0.265625 5.554688 0 4.578125 -0.53125 C 3.597656 -1.0625 2.84375 -1.867188 2.3125 -2.953125 C 1.789062 -4.046875 1.53125 -5.394531 1.53125 -7 C 1.53125 -8.601562 1.804688 -9.953125 2.359375 -11.046875 C 2.921875 -12.140625 3.679688 -12.953125 4.640625 -13.484375 C 5.609375 -14.023438 6.710938 -14.296875 7.953125 -14.296875 C 9.742188 -14.296875 11.144531 -13.785156 12.15625 -12.765625 C 13.164062 -11.753906 13.675781 -10.253906 13.6875 -8.265625 C 13.6875 -7.484375 13.671875 -6.957031 13.640625 -6.6875 Z M 11.640625 -8.265625 C 11.609375 -9.753906 11.273438 -10.835938 10.640625 -11.515625 C 10.015625 -12.203125 9.117188 -12.546875 7.953125 -12.546875 C 6.722656 -12.546875 5.753906 -12.203125 5.046875 -11.515625 C 4.347656 -10.835938 3.925781 -9.753906 3.78125 -8.265625 Z M 11.640625 -8.265625 "/></g></g><g transform="translate(497.90361, 30.442811)"><g><path d="M 5.578125 0.265625 C 4.585938 0.265625 3.804688 -0.015625 3.234375 -0.578125 C 2.671875 -1.140625 2.390625 -1.984375 2.390625 -3.109375 L 2.390625 -19.65625 L 4.46875 -19.65625 L 4.46875 -3.25 C 4.46875 -2.65625 4.578125 -2.226562 4.796875 -1.96875 C 5.023438 -1.71875 5.375 -1.59375 5.84375 -1.59375 C 6.132812 -1.59375 6.429688 -1.640625 6.734375 -1.734375 L 6.90625 -1.671875 L 7.140625 -0.046875 C 6.992188 0.0546875 6.773438 0.132812 6.484375 0.1875 C 6.203125 0.238281 5.898438 0.265625 5.578125 0.265625 Z M 5.578125 0.265625 "/></g></g><g transform="translate(505.535773, 30.442811)"><g><path d="M 8.046875 0.265625 C 6.722656 0.265625 5.570312 -0.0078125 4.59375 -0.5625 C 3.613281 -1.125 2.859375 -1.953125 2.328125 -3.046875 C 1.796875 -4.140625 1.53125 -5.457031 1.53125 -7 C 1.53125 -8.550781 1.796875 -9.875 2.328125 -10.96875 C 2.859375 -12.0625 3.613281 -12.890625 4.59375 -13.453125 C 5.570312 -14.015625 6.722656 -14.296875 8.046875 -14.296875 C 9.367188 -14.296875 10.519531 -14.015625 11.5 -13.453125 C 12.476562 -12.890625 13.234375 -12.0625 13.765625 -10.96875 C 14.296875 -9.875 14.5625 -8.550781 14.5625 -7 C 14.5625 -5.457031 14.296875 -4.140625 13.765625 -3.046875 C 13.234375 -1.953125 12.476562 -1.125 11.5 -0.5625 C 10.519531 -0.0078125 9.367188 0.265625 8.046875 0.265625 Z M 8.046875 -1.59375 C 9.453125 -1.59375 10.523438 -2.03125 11.265625 -2.90625 C 12.003906 -3.789062 12.375 -5.15625 12.375 -7 C 12.375 -8.863281 12.003906 -10.234375 11.265625 -11.109375 C 10.523438 -11.992188 9.453125 -12.4375 8.046875 -12.4375 C 6.648438 -12.4375 5.578125 -11.992188 4.828125 -11.109375 C 4.085938 -10.222656 3.71875 -8.851562 3.71875 -7 C 3.71875 -5.15625 4.085938 -3.789062 4.828125 -2.90625 C 5.578125 -2.03125 6.648438 -1.59375 8.046875 -1.59375 Z M 8.046875 -1.59375 "/></g></g><g transform="translate(521.639637, 30.442811)"><g><path d="M 2.4375 5.6875 L 2.4375 -14.03125 L 4.515625 -14.03125 L 4.515625 -11.921875 L 4.78125 -11.875 C 5.820312 -13.488281 7.351562 -14.296875 9.375 -14.296875 C 10.539062 -14.296875 11.5625 -14.023438 12.4375 -13.484375 C 13.3125 -12.953125 13.988281 -12.140625 14.46875 -11.046875 C 14.957031 -9.960938 15.203125 -8.613281 15.203125 -7 C 15.203125 -5.40625 14.945312 -4.0625 14.4375 -2.96875 C 13.925781 -1.882812 13.21875 -1.070312 12.3125 -0.53125 C 11.414062 0 10.382812 0.265625 9.21875 0.265625 C 8.269531 0.265625 7.425781 0.101562 6.6875 -0.21875 C 5.945312 -0.550781 5.3125 -1.097656 4.78125 -1.859375 L 4.515625 -1.8125 L 4.515625 5.6875 Z M 8.765625 -1.59375 C 11.609375 -1.59375 13.03125 -3.394531 13.03125 -7 C 13.03125 -10.625 11.609375 -12.4375 8.765625 -12.4375 C 7.929688 -12.4375 7.195312 -12.242188 6.5625 -11.859375 C 5.925781 -11.484375 5.425781 -10.890625 5.0625 -10.078125 C 4.695312 -9.265625 4.515625 -8.238281 4.515625 -7 C 4.515625 -5.769531 4.695312 -4.75 5.0625 -3.9375 C 5.425781 -3.132812 5.925781 -2.539062 6.5625 -2.15625 C 7.195312 -1.78125 7.929688 -1.59375 8.765625 -1.59375 Z M 8.765625 -1.59375 "/></g></g><g transform="translate(538.379515, 30.442811)"><g><path d="M 2.4375 0 L 2.4375 -14.03125 L 4.40625 -14.03125 L 4.40625 -11.953125 L 4.6875 -11.90625 C 5.15625 -12.695312 5.726562 -13.289062 6.40625 -13.6875 C 7.082031 -14.09375 7.890625 -14.296875 8.828125 -14.296875 C 9.910156 -14.296875 10.75 -14.085938 11.34375 -13.671875 C 11.9375 -13.265625 12.398438 -12.601562 12.734375 -11.6875 L 13 -11.6875 C 13.476562 -12.539062 14.070312 -13.1875 14.78125 -13.625 C 15.488281 -14.070312 16.363281 -14.296875 17.40625 -14.296875 C 18.84375 -14.296875 19.914062 -13.90625 20.625 -13.125 C 21.332031 -12.34375 21.6875 -11.15625 21.6875 -9.5625 L 21.6875 0 L 19.609375 0 L 19.609375 -9.515625 C 19.609375 -10.535156 19.394531 -11.285156 18.96875 -11.765625 C 18.539062 -12.242188 17.851562 -12.484375 16.90625 -12.484375 C 15.78125 -12.484375 14.863281 -12.078125 14.15625 -11.265625 C 13.445312 -10.453125 13.09375 -9.113281 13.09375 -7.25 L 13.09375 0 L 11.03125 0 L 11.03125 -9.515625 C 11.03125 -10.535156 10.8125 -11.285156 10.375 -11.765625 C 9.945312 -12.242188 9.257812 -12.484375 8.3125 -12.484375 C 7.195312 -12.484375 6.285156 -12.085938 5.578125 -11.296875 C 4.867188 -10.515625 4.515625 -9.238281 4.515625 -7.46875 L 4.515625 0 Z M 2.4375 0 "/></g></g><g transform="translate(562.293627, 30.442811)"><g><path d="M 13.359375 -6.53125 L 3.71875 -6.53125 C 3.78125 -4.832031 4.191406 -3.582031 4.953125 -2.78125 C 5.710938 -1.988281 6.753906 -1.59375 8.078125 -1.59375 C 9.078125 -1.59375 9.878906 -1.769531 10.484375 -2.125 C 11.097656 -2.476562 11.578125 -3.035156 11.921875 -3.796875 L 12.203125 -3.796875 L 13.546875 -3 C 13.140625 -1.976562 12.488281 -1.175781 11.59375 -0.59375 C 10.695312 -0.0195312 9.523438 0.265625 8.078125 0.265625 C 6.722656 0.265625 5.554688 0 4.578125 -0.53125 C 3.597656 -1.0625 2.84375 -1.867188 2.3125 -2.953125 C 1.789062 -4.046875 1.53125 -5.394531 1.53125 -7 C 1.53125 -8.601562 1.804688 -9.953125 2.359375 -11.046875 C 2.921875 -12.140625 3.679688 -12.953125 4.640625 -13.484375 C 5.609375 -14.023438 6.710938 -14.296875 7.953125 -14.296875 C 9.742188 -14.296875 11.144531 -13.785156 12.15625 -12.765625 C 13.164062 -11.753906 13.675781 -10.253906 13.6875 -8.265625 C 13.6875 -7.484375 13.671875 -6.957031 13.640625 -6.6875 Z M 11.640625 -8.265625 C 11.609375 -9.753906 11.273438 -10.835938 10.640625 -11.515625 C 10.015625 -12.203125 9.117188 -12.546875 7.953125 -12.546875 C 6.722656 -12.546875 5.753906 -12.203125 5.046875 -11.515625 C 4.347656 -10.835938 3.925781 -9.753906 3.78125 -8.265625 Z M 11.640625 -8.265625 "/></g></g><g transform="translate(577.252667, 30.442811)"><g><path d="M 2.4375 0 L 2.4375 -14.03125 L 4.40625 -14.03125 L 4.40625 -11.828125 L 4.6875 -11.765625 C 5.144531 -12.585938 5.734375 -13.210938 6.453125 -13.640625 C 7.179688 -14.078125 8.070312 -14.296875 9.125 -14.296875 C 10.8125 -14.296875 12.03125 -13.863281 12.78125 -13 C 13.539062 -12.144531 13.921875 -10.820312 13.921875 -9.03125 L 13.921875 0 L 11.859375 0 L 11.859375 -8.984375 C 11.859375 -9.828125 11.75 -10.503906 11.53125 -11.015625 C 11.3125 -11.535156 10.972656 -11.910156 10.515625 -12.140625 C 10.066406 -12.367188 9.472656 -12.484375 8.734375 -12.484375 C 7.472656 -12.484375 6.453125 -12.066406 5.671875 -11.234375 C 4.898438 -10.398438 4.515625 -9.054688 4.515625 -7.203125 L 4.515625 0 Z M 2.4375 0 "/></g></g><g transform="translate(593.407412, 30.442811)"><g><path d="M 9.484375 -2.21875 L 10.15625 -0.734375 C 9.820312 -0.398438 9.382812 -0.148438 8.84375 0.015625 C 8.300781 0.179688 7.71875 0.265625 7.09375 0.265625 C 4.414062 0.265625 3.078125 -1.085938 3.078125 -3.796875 L 3.078125 -12.34375 L 0.640625 -12.34375 L 0.640625 -14.046875 L 3.078125 -14.046875 L 3.078125 -17 L 5.15625 -17.34375 L 5.15625 -14.046875 L 9.671875 -14.046875 L 9.671875 -12.34375 L 5.15625 -12.34375 L 5.15625 -4 C 5.15625 -2.394531 5.851562 -1.59375 7.25 -1.59375 C 8.007812 -1.59375 8.664062 -1.800781 9.21875 -2.21875 Z M 9.484375 -2.21875 "/></g></g></g><g fill="#ffffff" fill-opacity="1"><g transform="translate(491.645236, 66.263097)"><g><path d="M 1.328125 0 L 1.328125 -1.8125 L 6.390625 -1.8125 L 6.390625 -16.03125 L 6.109375 -16.09375 C 5.285156 -15.6875 4.5625 -15.375 3.9375 -15.15625 C 3.320312 -14.945312 2.53125 -14.738281 1.5625 -14.53125 L 1.5625 -16.546875 C 2.519531 -16.753906 3.46875 -17.03125 4.40625 -17.375 C 5.34375 -17.71875 6.191406 -18.125 6.953125 -18.59375 L 8.53125 -18.59375 L 8.53125 -1.8125 L 13.078125 -1.8125 L 13.078125 0 Z M 1.328125 0 "/></g></g><g transform="translate(505.510333, 66.263097)"><g><path d="M 9.140625 0.265625 C 7.773438 0.265625 6.550781 -0.0625 5.46875 -0.71875 C 4.382812 -1.375 3.519531 -2.414062 2.875 -3.84375 C 2.226562 -5.269531 1.90625 -7.085938 1.90625 -9.296875 C 1.90625 -11.503906 2.226562 -13.320312 2.875 -14.75 C 3.519531 -16.175781 4.382812 -17.21875 5.46875 -17.875 C 6.550781 -18.53125 7.773438 -18.859375 9.140625 -18.859375 C 10.503906 -18.859375 11.726562 -18.53125 12.8125 -17.875 C 13.90625 -17.21875 14.769531 -16.175781 15.40625 -14.75 C 16.050781 -13.320312 16.375 -11.503906 16.375 -9.296875 C 16.375 -7.085938 16.050781 -5.269531 15.40625 -3.84375 C 14.769531 -2.414062 13.90625 -1.375 12.8125 -0.71875 C 11.726562 -0.0625 10.503906 0.265625 9.140625 0.265625 Z M 9.140625 -1.75 C 10.765625 -1.75 11.992188 -2.332031 12.828125 -3.5 C 13.660156 -4.664062 14.078125 -6.597656 14.078125 -9.296875 C 14.078125 -11.992188 13.660156 -13.925781 12.828125 -15.09375 C 11.992188 -16.257812 10.765625 -16.84375 9.140625 -16.84375 C 8.078125 -16.84375 7.179688 -16.59375 6.453125 -16.09375 C 5.722656 -15.601562 5.164062 -14.800781 4.78125 -13.6875 C 4.394531 -12.582031 4.203125 -11.117188 4.203125 -9.296875 C 4.203125 -7.472656 4.394531 -6.003906 4.78125 -4.890625 C 5.164062 -3.785156 5.722656 -2.984375 6.453125 -2.484375 C 7.179688 -1.992188 8.078125 -1.75 9.140625 -1.75 Z M 9.140625 -1.75 "/></g></g><g transform="translate(523.802084, 66.263097)"><g><path d="M 5.296875 -8.5 C 4.453125 -8.5 3.710938 -8.679688 3.078125 -9.046875 C 2.453125 -9.421875 1.957031 -9.992188 1.59375 -10.765625 C 1.238281 -11.535156 1.0625 -12.507812 1.0625 -13.6875 C 1.0625 -15.414062 1.441406 -16.707031 2.203125 -17.5625 C 2.972656 -18.425781 4.003906 -18.859375 5.296875 -18.859375 C 6.117188 -18.859375 6.84375 -18.671875 7.46875 -18.296875 C 8.101562 -17.929688 8.597656 -17.363281 8.953125 -16.59375 C 9.304688 -15.820312 9.484375 -14.851562 9.484375 -13.6875 C 9.484375 -12.507812 9.304688 -11.535156 8.953125 -10.765625 C 8.597656 -9.992188 8.101562 -9.421875 7.46875 -9.046875 C 6.84375 -8.679688 6.117188 -8.5 5.296875 -8.5 Z M 5.703125 0 L 3.859375 0 L 3.796875 -0.265625 L 16.234375 -18.59375 L 18.09375 -18.59375 L 18.15625 -18.328125 Z M 5.296875 -10.09375 C 6.085938 -10.09375 6.671875 -10.363281 7.046875 -10.90625 C 7.429688 -11.457031 7.625 -12.382812 7.625 -13.6875 C 7.625 -14.976562 7.429688 -15.894531 7.046875 -16.4375 C 6.671875 -16.988281 6.085938 -17.265625 5.296875 -17.265625 C 4.753906 -17.265625 4.3125 -17.148438 3.96875 -16.921875 C 3.625 -16.691406 3.363281 -16.3125 3.1875 -15.78125 C 3.007812 -15.257812 2.921875 -14.5625 2.921875 -13.6875 C 2.921875 -12.800781 3.007812 -12.09375 3.1875 -11.5625 C 3.363281 -11.039062 3.625 -10.664062 3.96875 -10.4375 C 4.3125 -10.207031 4.753906 -10.09375 5.296875 -10.09375 Z M 16.71875 0.265625 C 15.425781 0.265625 14.394531 -0.160156 13.625 -1.015625 C 12.863281 -1.878906 12.484375 -3.175781 12.484375 -4.90625 C 12.484375 -6.644531 12.863281 -7.941406 13.625 -8.796875 C 14.394531 -9.660156 15.425781 -10.09375 16.71875 -10.09375 C 17.539062 -10.09375 18.265625 -9.90625 18.890625 -9.53125 C 19.523438 -9.164062 20.019531 -8.597656 20.375 -7.828125 C 20.726562 -7.054688 20.90625 -6.082031 20.90625 -4.90625 C 20.90625 -3.738281 20.726562 -2.769531 20.375 -2 C 20.019531 -1.226562 19.523438 -0.65625 18.890625 -0.28125 C 18.265625 0.0820312 17.539062 0.265625 16.71875 0.265625 Z M 16.71875 -1.328125 C 17.507812 -1.328125 18.09375 -1.597656 18.46875 -2.140625 C 18.851562 -2.691406 19.046875 -3.613281 19.046875 -4.90625 C 19.046875 -6.207031 18.851562 -7.128906 18.46875 -7.671875 C 18.09375 -8.222656 17.507812 -8.5 16.71875 -8.5 C 15.90625 -8.5 15.304688 -8.226562 14.921875 -7.6875 C 14.535156 -7.144531 14.34375 -6.21875 14.34375 -4.90625 C 14.34375 -3.601562 14.535156 -2.679688 14.921875 -2.140625 C 15.304688 -1.597656 15.90625 -1.328125 16.71875 -1.328125 Z M 16.71875 -1.328125 "/></g></g></g><g fill="#ffffff" fill-opacity="1"><g transform="translate(710.928712, 170.090399)"><g><path d="M 8.125 0.265625 C 6.957031 0.265625 5.910156 0.109375 4.984375 -0.203125 C 4.054688 -0.523438 3.28125 -0.941406 2.65625 -1.453125 C 2.039062 -1.972656 1.578125 -2.546875 1.265625 -3.171875 L 2.46875 -4.609375 L 2.78125 -4.609375 C 3.9375 -2.671875 5.71875 -1.703125 8.125 -1.703125 C 9.519531 -1.703125 10.554688 -1.992188 11.234375 -2.578125 C 11.921875 -3.160156 12.265625 -3.976562 12.265625 -5.03125 C 12.265625 -5.632812 12.148438 -6.148438 11.921875 -6.578125 C 11.703125 -7.003906 11.332031 -7.363281 10.8125 -7.65625 C 10.300781 -7.957031 9.601562 -8.21875 8.71875 -8.4375 L 6.53125 -8.984375 C 4.914062 -9.367188 3.722656 -9.988281 2.953125 -10.84375 C 2.191406 -11.695312 1.8125 -12.773438 1.8125 -14.078125 C 1.8125 -15.003906 2.046875 -15.828125 2.515625 -16.546875 C 2.992188 -17.273438 3.691406 -17.84375 4.609375 -18.25 C 5.523438 -18.65625 6.617188 -18.859375 7.890625 -18.859375 C 9.285156 -18.859375 10.460938 -18.660156 11.421875 -18.265625 C 12.390625 -17.867188 13.160156 -17.28125 13.734375 -16.5 L 12.671875 -15.0625 L 12.34375 -15.0625 C 11.8125 -15.707031 11.179688 -16.179688 10.453125 -16.484375 C 9.722656 -16.796875 8.867188 -16.953125 7.890625 -16.953125 C 6.597656 -16.953125 5.625 -16.703125 4.96875 -16.203125 C 4.3125 -15.703125 3.984375 -15.007812 3.984375 -14.125 C 3.984375 -13.289062 4.222656 -12.625 4.703125 -12.125 C 5.191406 -11.625 6.003906 -11.238281 7.140625 -10.96875 L 9.375 -10.4375 C 11.175781 -10.019531 12.484375 -9.367188 13.296875 -8.484375 C 14.109375 -7.609375 14.515625 -6.488281 14.515625 -5.125 C 14.515625 -4.070312 14.273438 -3.140625 13.796875 -2.328125 C 13.328125 -1.523438 12.613281 -0.890625 11.65625 -0.421875 C 10.695312 0.0351562 9.519531 0.265625 8.125 0.265625 Z M 8.125 0.265625 "/></g></g><g transform="translate(726.867213, 170.090399)"><g><path d="M 9.484375 -2.21875 L 10.15625 -0.734375 C 9.820312 -0.398438 9.382812 -0.148438 8.84375 0.015625 C 8.300781 0.179688 7.71875 0.265625 7.09375 0.265625 C 4.414062 0.265625 3.078125 -1.085938 3.078125 -3.796875 L 3.078125 -12.34375 L 0.640625 -12.34375 L 0.640625 -14.046875 L 3.078125 -14.046875 L 3.078125 -17 L 5.15625 -17.34375 L 5.15625 -14.046875 L 9.671875 -14.046875 L 9.671875 -12.34375 L 5.15625 -12.34375 L 5.15625 -4 C 5.15625 -2.394531 5.851562 -1.59375 7.25 -1.59375 C 8.007812 -1.59375 8.664062 -1.800781 9.21875 -2.21875 Z M 9.484375 -2.21875 "/></g></g><g transform="translate(737.552241, 170.090399)"><g><path d="M 5.78125 0.265625 C 4.40625 0.265625 3.328125 -0.09375 2.546875 -0.8125 C 1.773438 -1.53125 1.390625 -2.5625 1.390625 -3.90625 C 1.390625 -4.738281 1.5625 -5.441406 1.90625 -6.015625 C 2.25 -6.585938 2.78125 -7.050781 3.5 -7.40625 C 4.21875 -7.769531 5.160156 -8.046875 6.328125 -8.234375 C 7.335938 -8.410156 8.109375 -8.601562 8.640625 -8.8125 C 9.171875 -9.019531 9.523438 -9.253906 9.703125 -9.515625 C 9.890625 -9.785156 9.984375 -10.117188 9.984375 -10.515625 C 9.984375 -11.148438 9.765625 -11.632812 9.328125 -11.96875 C 8.890625 -12.3125 8.1875 -12.484375 7.21875 -12.484375 C 6.3125 -12.484375 5.535156 -12.304688 4.890625 -11.953125 C 4.242188 -11.609375 3.648438 -11.085938 3.109375 -10.390625 L 2.84375 -10.390625 L 1.828125 -11.828125 C 2.421875 -12.578125 3.175781 -13.175781 4.09375 -13.625 C 5.007812 -14.070312 6.050781 -14.296875 7.21875 -14.296875 C 8.875 -14.296875 10.09375 -13.929688 10.875 -13.203125 C 11.664062 -12.484375 12.0625 -11.484375 12.0625 -10.203125 L 12.0625 -2.765625 C 12.0625 -1.984375 12.390625 -1.59375 13.046875 -1.59375 C 13.265625 -1.59375 13.476562 -1.628906 13.6875 -1.703125 L 13.859375 -1.65625 L 14.109375 -0.21875 C 13.953125 -0.113281 13.75 -0.0351562 13.5 0.015625 C 13.25 0.078125 12.992188 0.109375 12.734375 0.109375 C 11.960938 0.109375 11.378906 -0.0625 10.984375 -0.40625 C 10.585938 -0.75 10.332031 -1.25 10.21875 -1.90625 L 9.953125 -1.9375 C 9.554688 -1.195312 9.019531 -0.644531 8.34375 -0.28125 C 7.664062 0.0820312 6.8125 0.265625 5.78125 0.265625 Z M 6.25 -1.390625 C 7.03125 -1.390625 7.703125 -1.566406 8.265625 -1.921875 C 8.835938 -2.285156 9.273438 -2.789062 9.578125 -3.4375 C 9.890625 -4.09375 10.046875 -4.847656 10.046875 -5.703125 L 10.046875 -7.484375 L 9.8125 -7.546875 C 9.488281 -7.328125 9.101562 -7.140625 8.65625 -6.984375 C 8.207031 -6.835938 7.582031 -6.707031 6.78125 -6.59375 C 5.96875 -6.476562 5.320312 -6.304688 4.84375 -6.078125 C 4.363281 -5.847656 4.019531 -5.554688 3.8125 -5.203125 C 3.613281 -4.859375 3.515625 -4.425781 3.515625 -3.90625 C 3.515625 -3.082031 3.753906 -2.457031 4.234375 -2.03125 C 4.710938 -1.601562 5.382812 -1.390625 6.25 -1.390625 Z M 6.25 -1.390625 "/></g></g><g transform="translate(752.066072, 170.090399)"><g><path d="M 2.4375 0 L 2.4375 -19.65625 L 4.515625 -19.65625 L 4.515625 -8.171875 L 4.859375 -8.171875 L 10.078125 -14.03125 L 12.25 -14.03125 L 12.25 -13.734375 L 6.6875 -7.4375 L 12.78125 -0.3125 L 12.78125 0 L 10.46875 0 L 4.859375 -6.484375 L 4.515625 -6.484375 L 4.515625 0 Z M 2.4375 0 "/></g></g><g transform="translate(765.117071, 170.090399)"><g><path d="M 3.484375 -16.734375 C 3.046875 -16.734375 2.6875 -16.867188 2.40625 -17.140625 C 2.132812 -17.421875 2 -17.773438 2 -18.203125 C 2 -18.617188 2.132812 -18.960938 2.40625 -19.234375 C 2.6875 -19.515625 3.046875 -19.65625 3.484375 -19.65625 C 3.921875 -19.65625 4.273438 -19.515625 4.546875 -19.234375 C 4.828125 -18.960938 4.96875 -18.617188 4.96875 -18.203125 C 4.96875 -17.773438 4.828125 -17.421875 4.546875 -17.140625 C 4.273438 -16.867188 3.921875 -16.734375 3.484375 -16.734375 Z M 2.4375 0 L 2.4375 -14.03125 L 4.515625 -14.03125 L 4.515625 0 Z M 2.4375 0 "/></g></g><g transform="translate(772.075059, 170.090399)"><g><path d="M 2.4375 0 L 2.4375 -14.03125 L 4.40625 -14.03125 L 4.40625 -11.828125 L 4.6875 -11.765625 C 5.144531 -12.585938 5.734375 -13.210938 6.453125 -13.640625 C 7.179688 -14.078125 8.070312 -14.296875 9.125 -14.296875 C 10.8125 -14.296875 12.03125 -13.863281 12.78125 -13 C 13.539062 -12.144531 13.921875 -10.820312 13.921875 -9.03125 L 13.921875 0 L 11.859375 0 L 11.859375 -8.984375 C 11.859375 -9.828125 11.75 -10.503906 11.53125 -11.015625 C 11.3125 -11.535156 10.972656 -11.910156 10.515625 -12.140625 C 10.066406 -12.367188 9.472656 -12.484375 8.734375 -12.484375 C 7.472656 -12.484375 6.453125 -12.066406 5.671875 -11.234375 C 4.898438 -10.398438 4.515625 -9.054688 4.515625 -7.203125 L 4.515625 0 Z M 2.4375 0 "/></g></g><g transform="translate(788.229805, 170.090399)"><g><path d="M 7.21875 5.953125 C 5.007812 5.953125 3.394531 5.582031 2.375 4.84375 C 1.363281 4.101562 0.859375 3.125 0.859375 1.90625 C 0.859375 1.113281 1.09375 0.484375 1.5625 0.015625 C 2.039062 -0.441406 2.734375 -0.773438 3.640625 -0.984375 L 3.640625 -1.25 C 3.203125 -1.488281 2.875 -1.773438 2.65625 -2.109375 C 2.445312 -2.441406 2.34375 -2.835938 2.34375 -3.296875 C 2.34375 -3.835938 2.515625 -4.273438 2.859375 -4.609375 C 3.203125 -4.953125 3.710938 -5.210938 4.390625 -5.390625 L 4.390625 -5.65625 C 2.859375 -6.46875 2.09375 -7.78125 2.09375 -9.59375 C 2.09375 -10.507812 2.300781 -11.320312 2.71875 -12.03125 C 3.132812 -12.738281 3.726562 -13.289062 4.5 -13.6875 C 5.269531 -14.09375 6.171875 -14.296875 7.203125 -14.296875 C 8.378906 -14.296875 9.363281 -14.035156 10.15625 -13.515625 C 10.445312 -13.847656 10.664062 -14.203125 10.8125 -14.578125 C 10.96875 -14.953125 11.066406 -15.378906 11.109375 -15.859375 L 11.375 -16.03125 L 13.078125 -15.625 C 12.992188 -14.90625 12.78125 -14.300781 12.4375 -13.8125 C 12.09375 -13.320312 11.601562 -12.914062 10.96875 -12.59375 L 10.96875 -12.328125 C 11.425781 -11.972656 11.757812 -11.554688 11.96875 -11.078125 C 12.1875 -10.597656 12.296875 -10.039062 12.296875 -9.40625 C 12.296875 -8.519531 12.082031 -7.722656 11.65625 -7.015625 C 11.238281 -6.316406 10.644531 -5.765625 9.875 -5.359375 C 9.101562 -4.953125 8.210938 -4.75 7.203125 -4.75 C 7.078125 -4.75 6.863281 -4.757812 6.5625 -4.78125 C 6.21875 -4.800781 5.96875 -4.8125 5.8125 -4.8125 C 5.375 -4.8125 5.019531 -4.695312 4.75 -4.46875 C 4.488281 -4.238281 4.359375 -3.945312 4.359375 -3.59375 C 4.359375 -3.144531 4.5 -2.816406 4.78125 -2.609375 C 5.070312 -2.398438 5.539062 -2.285156 6.1875 -2.265625 L 9.515625 -2.15625 C 10.941406 -2.101562 12 -1.769531 12.6875 -1.15625 C 13.382812 -0.539062 13.734375 0.332031 13.734375 1.46875 C 13.734375 2.300781 13.507812 3.054688 13.0625 3.734375 C 12.613281 4.410156 11.898438 4.945312 10.921875 5.34375 C 9.953125 5.75 8.71875 5.953125 7.21875 5.953125 Z M 7.203125 -6.53125 C 8.191406 -6.53125 8.957031 -6.789062 9.5 -7.3125 C 10.039062 -7.832031 10.3125 -8.554688 10.3125 -9.484375 C 10.3125 -10.453125 10.039062 -11.195312 9.5 -11.71875 C 8.96875 -12.25 8.203125 -12.515625 7.203125 -12.515625 C 6.203125 -12.515625 5.4375 -12.253906 4.90625 -11.734375 C 4.382812 -11.210938 4.125 -10.460938 4.125 -9.484375 C 4.125 -8.546875 4.382812 -7.816406 4.90625 -7.296875 C 5.4375 -6.785156 6.203125 -6.53125 7.203125 -6.53125 Z M 7.21875 4.171875 C 8.257812 4.171875 9.109375 4.054688 9.765625 3.828125 C 10.421875 3.597656 10.890625 3.296875 11.171875 2.921875 C 11.460938 2.546875 11.609375 2.125 11.609375 1.65625 C 11.609375 1.238281 11.53125 0.898438 11.375 0.640625 C 11.21875 0.390625 10.960938 0.203125 10.609375 0.078125 C 10.265625 -0.046875 9.789062 -0.128906 9.1875 -0.171875 L 6.046875 -0.3125 L 5.609375 -0.3125 C 3.847656 -0.289062 2.96875 0.390625 2.96875 1.734375 C 2.96875 3.359375 4.382812 4.171875 7.21875 4.171875 Z M 7.21875 4.171875 "/></g></g></g><g fill="#ffffff" fill-opacity="1"><g transform="translate(729.691113, 205.910685)"><g><path d="M 1.328125 0 L 1.328125 -1.8125 L 6.390625 -1.8125 L 6.390625 -16.03125 L 6.109375 -16.09375 C 5.285156 -15.6875 4.5625 -15.375 3.9375 -15.15625 C 3.320312 -14.945312 2.53125 -14.738281 1.5625 -14.53125 L 1.5625 -16.546875 C 2.519531 -16.753906 3.46875 -17.03125 4.40625 -17.375 C 5.34375 -17.71875 6.191406 -18.125 6.953125 -18.59375 L 8.53125 -18.59375 L 8.53125 -1.8125 L 13.078125 -1.8125 L 13.078125 0 Z M 1.328125 0 "/></g></g><g transform="translate(743.556209, 205.910685)"><g><path d="M 9.140625 0.265625 C 7.773438 0.265625 6.550781 -0.0625 5.46875 -0.71875 C 4.382812 -1.375 3.519531 -2.414062 2.875 -3.84375 C 2.226562 -5.269531 1.90625 -7.085938 1.90625 -9.296875 C 1.90625 -11.503906 2.226562 -13.320312 2.875 -14.75 C 3.519531 -16.175781 4.382812 -17.21875 5.46875 -17.875 C 6.550781 -18.53125 7.773438 -18.859375 9.140625 -18.859375 C 10.503906 -18.859375 11.726562 -18.53125 12.8125 -17.875 C 13.90625 -17.21875 14.769531 -16.175781 15.40625 -14.75 C 16.050781 -13.320312 16.375 -11.503906 16.375 -9.296875 C 16.375 -7.085938 16.050781 -5.269531 15.40625 -3.84375 C 14.769531 -2.414062 13.90625 -1.375 12.8125 -0.71875 C 11.726562 -0.0625 10.503906 0.265625 9.140625 0.265625 Z M 9.140625 -1.75 C 10.765625 -1.75 11.992188 -2.332031 12.828125 -3.5 C 13.660156 -4.664062 14.078125 -6.597656 14.078125 -9.296875 C 14.078125 -11.992188 13.660156 -13.925781 12.828125 -15.09375 C 11.992188 -16.257812 10.765625 -16.84375 9.140625 -16.84375 C 8.078125 -16.84375 7.179688 -16.59375 6.453125 -16.09375 C 5.722656 -15.601562 5.164062 -14.800781 4.78125 -13.6875 C 4.394531 -12.582031 4.203125 -11.117188 4.203125 -9.296875 C 4.203125 -7.472656 4.394531 -6.003906 4.78125 -4.890625 C 5.164062 -3.785156 5.722656 -2.984375 6.453125 -2.484375 C 7.179688 -1.992188 8.078125 -1.75 9.140625 -1.75 Z M 9.140625 -1.75 "/></g></g><g transform="translate(761.84796, 205.910685)"><g><path d="M 5.296875 -8.5 C 4.453125 -8.5 3.710938 -8.679688 3.078125 -9.046875 C 2.453125 -9.421875 1.957031 -9.992188 1.59375 -10.765625 C 1.238281 -11.535156 1.0625 -12.507812 1.0625 -13.6875 C 1.0625 -15.414062 1.441406 -16.707031 2.203125 -17.5625 C 2.972656 -18.425781 4.003906 -18.859375 5.296875 -18.859375 C 6.117188 -18.859375 6.84375 -18.671875 7.46875 -18.296875 C 8.101562 -17.929688 8.597656 -17.363281 8.953125 -16.59375 C 9.304688 -15.820312 9.484375 -14.851562 9.484375 -13.6875 C 9.484375 -12.507812 9.304688 -11.535156 8.953125 -10.765625 C 8.597656 -9.992188 8.101562 -9.421875 7.46875 -9.046875 C 6.84375 -8.679688 6.117188 -8.5 5.296875 -8.5 Z M 5.703125 0 L 3.859375 0 L 3.796875 -0.265625 L 16.234375 -18.59375 L 18.09375 -18.59375 L 18.15625 -18.328125 Z M 5.296875 -10.09375 C 6.085938 -10.09375 6.671875 -10.363281 7.046875 -10.90625 C 7.429688 -11.457031 7.625 -12.382812 7.625 -13.6875 C 7.625 -14.976562 7.429688 -15.894531 7.046875 -16.4375 C 6.671875 -16.988281 6.085938 -17.265625 5.296875 -17.265625 C 4.753906 -17.265625 4.3125 -17.148438 3.96875 -16.921875 C 3.625 -16.691406 3.363281 -16.3125 3.1875 -15.78125 C 3.007812 -15.257812 2.921875 -14.5625 2.921875 -13.6875 C 2.921875 -12.800781 3.007812 -12.09375 3.1875 -11.5625 C 3.363281 -11.039062 3.625 -10.664062 3.96875 -10.4375 C 4.3125 -10.207031 4.753906 -10.09375 5.296875 -10.09375 Z M 16.71875 0.265625 C 15.425781 0.265625 14.394531 -0.160156 13.625 -1.015625 C 12.863281 -1.878906 12.484375 -3.175781 12.484375 -4.90625 C 12.484375 -6.644531 12.863281 -7.941406 13.625 -8.796875 C 14.394531 -9.660156 15.425781 -10.09375 16.71875 -10.09375 C 17.539062 -10.09375 18.265625 -9.90625 18.890625 -9.53125 C 19.523438 -9.164062 20.019531 -8.597656 20.375 -7.828125 C 20.726562 -7.054688 20.90625 -6.082031 20.90625 -4.90625 C 20.90625 -3.738281 20.726562 -2.769531 20.375 -2 C 20.019531 -1.226562 19.523438 -0.65625 18.890625 -0.28125 C 18.265625 0.0820312 17.539062 0.265625 16.71875 0.265625 Z M 16.71875 -1.328125 C 17.507812 -1.328125 18.09375 -1.597656 18.46875 -2.140625 C 18.851562 -2.691406 19.046875 -3.613281 19.046875 -4.90625 C 19.046875 -6.207031 18.851562 -7.128906 18.46875 -7.671875 C 18.09375 -8.222656 17.507812 -8.5 16.71875 -8.5 C 15.90625 -8.5 15.304688 -8.226562 14.921875 -7.6875 C 14.535156 -7.144531 14.34375 -6.21875 14.34375 -4.90625 C 14.34375 -3.601562 14.535156 -2.679688 14.921875 -2.140625 C 15.304688 -1.597656 15.90625 -1.328125 16.71875 -1.328125 Z M 16.71875 -1.328125 "/></g></g></g><g clip-path="url(#0b17d3a78c)"><g clip-path="url(#3d659a62be)"><path fill="#6ce5e8" d="M 70.21875 75.289062 L 729.636719 75.289062 L 729.636719 734.710938 L 70.21875 734.710938 Z M 70.21875 75.289062 " fill-opacity="1" fill-rule="nonzero"/></g></g><g clip-path="url(#5a2eb92b3d)"><g clip-path="url(#369f65549d)"><path fill="#41b8d5" d="M 70.21875 75.289062 L 729.636719 75.289062 L 729.636719 734.710938 L 70.21875 734.710938 Z M 70.21875 75.289062 " fill-opacity="1" fill-rule="nonzero"/></g></g><g clip-path="url(#8616b5e4f3)"><g clip-path="url(#2b785904db)"><path fill="#2d8bba" d="M 70.21875 75.289062 L 729.636719 75.289062 L 729.636719 734.710938 L 70.21875 734.710938 Z M 70.21875 75.289062 " fill-opacity="1" fill-rule="nonzero"/></g></g><g clip-path="url(#5246d4b591)"><g clip-path="url(#b2232fbafb)"><path fill="#2f5f98" d="M 70.21875 75.289062 L 729.636719 75.289062 L 729.636719 734.710938 L 70.21875 734.710938 Z M 70.21875 75.289062 " fill-opacity="1" fill-rule="nonzero"/></g></g><g clip-path="url(#3eea66c833)"><g clip-path="url(#42fb85d59f)"><path fill="#31356e" d="M 70.21875 75.289062 L 729.636719 75.289062 L 729.636719 734.710938 L 70.21875 734.710938 Z M 70.21875 75.289062 " fill-opacity="1" fill-rule="nonzero"/></g></g></svg>