<svg xmlns="http://www.w3.org/2000/svg" xmlns:xlink="http://www.w3.org/1999/xlink" width="820" zoomAndPan="magnify" viewBox="0 0 615 956.249975" height="1275" preserveAspectRatio="xMidYMid meet" version="1.0"><defs><clipPath id="b666a52d63"><path d="M 0.242188 168 L 65 168 L 65 264.199219 L 0.242188 264.199219 Z M 0.242188 168 " clip-rule="nonzero"/></clipPath><clipPath id="8dc3591a7f"><path d="M 178 69 L 201.652344 69 L 201.652344 101 L 178 101 Z M 178 69 " clip-rule="nonzero"/></clipPath><clipPath id="fc0ed5bac9"><path d="M 15 9.398438 L 42 9.398438 L 42 44 L 15 44 Z M 15 9.398438 " clip-rule="nonzero"/></clipPath><clipPath id="5d506db604"><path d="M 584 160 L 614.757812 160 L 614.757812 227 L 584 227 Z M 584 160 " clip-rule="nonzero"/></clipPath><clipPath id="c764c5e3da"><path d="M 447 186 L 519 186 L 519 282.996094 L 447 282.996094 Z M 447 186 " clip-rule="nonzero"/></clipPath><clipPath id="a25c3ff1a0"><path d="M 410.097656 130 L 429 130 L 429 156 L 410.097656 156 Z M 410.097656 130 " clip-rule="nonzero"/></clipPath><clipPath id="0dda16d834"><path d="M 470 28.195312 L 496 28.195312 L 496 63 L 470 63 Z M 470 28.195312 " clip-rule="nonzero"/></clipPath><clipPath id="bb6df6dacf"><path d="M 46 476 L 118 476 L 118 572.777344 L 46 572.777344 Z M 46 476 " clip-rule="nonzero"/></clipPath><clipPath id="5579fe9ef4"><path d="M 232 378 L 254.90625 378 L 254.90625 409 L 232 409 Z M 232 378 " clip-rule="nonzero"/></clipPath><clipPath id="c877815e6c"><path d="M 9.101562 419 L 28 419 L 28 445 L 9.101562 445 Z M 9.101562 419 " clip-rule="nonzero"/></clipPath><clipPath id="2bdca34f68"><path d="M 69 317.980469 L 95 317.980469 L 95 353 L 69 353 Z M 69 317.980469 " clip-rule="nonzero"/></clipPath><clipPath id="c8cd2b1643"><path d="M 549 416 L 614.757812 416 L 614.757812 524 L 549 524 Z M 549 416 " clip-rule="nonzero"/></clipPath><clipPath id="5252403f73"><path d="M 503 537 L 575 537 L 575 633.867188 L 503 633.867188 Z M 503 537 " clip-rule="nonzero"/></clipPath><clipPath id="69acd7f43f"><path d="M 466.488281 480 L 486 480 L 486 506 L 466.488281 506 Z M 466.488281 480 " clip-rule="nonzero"/></clipPath><clipPath id="5454cf770e"><path d="M 526 379.070312 L 552 379.070312 L 552 414 L 526 414 Z M 526 379.070312 " clip-rule="nonzero"/></clipPath><clipPath id="be6af152ad"><path d="M 241 743 L 364 743 L 364 868.917969 L 241 868.917969 Z M 241 743 " clip-rule="nonzero"/></clipPath></defs><path fill="#fecd1a" d="M 126.703125 100.082031 L 112.203125 103.753906 C 98.941406 107.113281 88.582031 119.796875 85.835938 136.027344 L 82.835938 153.777344 L 79.835938 136.027344 C 77.09375 119.796875 66.730469 107.113281 53.472656 103.753906 L 38.96875 100.082031 L 53.472656 96.410156 C 66.730469 93.050781 77.09375 80.367188 79.835938 64.136719 L 82.835938 46.386719 L 85.835938 64.136719 C 88.582031 80.367188 98.941406 93.050781 112.203125 96.410156 Z M 126.703125 100.082031 " fill-opacity="1" fill-rule="nonzero"/><path fill="#fecd1a" d="M 197.503906 174.769531 L 186.457031 177.054688 C 176.359375 179.148438 168.46875 187.042969 166.378906 197.152344 L 164.09375 208.203125 L 161.808594 197.152344 C 159.71875 187.042969 151.824219 179.148438 141.726562 177.054688 L 130.683594 174.769531 L 141.726562 172.480469 C 151.824219 170.390625 159.71875 162.492188 161.808594 152.386719 L 164.09375 141.332031 L 166.378906 152.386719 C 168.46875 162.492188 176.359375 170.390625 186.457031 172.480469 Z M 197.503906 174.769531 " fill-opacity="1" fill-rule="nonzero"/><g clip-path="url(#b666a52d63)"><path fill="#fecd1a" d="M 64.296875 220.03125 L 46.539062 221.941406 C 38.09375 223.691406 31.496094 230.292969 29.75 238.746094 L 27.839844 264.160156 L 25.925781 238.746094 C 24.179688 230.292969 17.582031 223.691406 9.136719 221.941406 L -7.222656 220.03125 L 9.136719 218.117188 C 17.582031 216.367188 24.179688 209.765625 25.925781 201.316406 L 27.839844 168.042969 L 29.75 201.316406 C 31.496094 209.765625 38.09375 216.367188 46.539062 218.117188 Z M 64.296875 220.03125 " fill-opacity="1" fill-rule="nonzero"/></g><g clip-path="url(#8dc3591a7f)"><path fill="#fecd1a" d="M 201.457031 84.816406 L 197.71875 85.863281 C 194.296875 86.816406 191.625 90.421875 190.917969 95.035156 L 190.144531 100.082031 L 189.371094 95.035156 C 188.664062 90.421875 185.992188 86.816406 182.574219 85.863281 L 178.832031 84.816406 L 182.574219 83.773438 C 185.992188 82.816406 188.664062 79.210938 189.371094 74.597656 L 190.144531 69.550781 L 190.917969 74.597656 C 191.625 79.210938 194.296875 82.816406 197.71875 83.773438 Z M 201.457031 84.816406 " fill-opacity="1" fill-rule="nonzero"/></g><g clip-path="url(#fc0ed5bac9)"><path fill="#fecd1a" d="M 41.292969 26.613281 L 37.074219 27.789062 C 33.21875 28.867188 30.207031 32.933594 29.410156 38.136719 L 28.535156 43.828125 L 27.664062 38.136719 C 26.867188 32.933594 23.851562 28.867188 19.996094 27.789062 L 15.78125 26.613281 L 19.996094 25.433594 C 23.851562 24.359375 26.867188 20.292969 27.664062 15.089844 L 28.535156 9.398438 L 29.410156 15.089844 C 30.207031 20.292969 33.21875 24.359375 37.074219 25.433594 Z M 41.292969 26.613281 " fill-opacity="1" fill-rule="nonzero"/></g><path fill="#fecd1a" d="M 156.695312 34.992188 L 154.640625 35.5625 C 152.765625 36.085938 151.296875 38.066406 150.910156 40.597656 L 150.484375 43.367188 L 150.058594 40.597656 C 149.671875 38.066406 148.207031 36.085938 146.328125 35.5625 L 144.277344 34.992188 L 146.328125 34.417969 C 148.207031 33.894531 149.671875 31.914062 150.058594 29.382812 L 150.484375 26.613281 L 150.910156 29.382812 C 151.296875 31.914062 152.765625 33.894531 154.640625 34.417969 Z M 156.695312 34.992188 " fill-opacity="1" fill-rule="nonzero"/><path fill="#fecd1a" d="M 580.960938 118.878906 L 566.457031 122.550781 C 553.199219 125.910156 542.835938 138.59375 540.09375 154.824219 L 537.09375 172.574219 L 534.089844 154.824219 C 531.347656 138.59375 520.988281 125.910156 507.726562 122.550781 L 493.226562 118.878906 L 507.726562 115.207031 C 520.988281 111.847656 531.347656 99.164062 534.089844 82.933594 L 537.09375 65.183594 L 540.09375 82.933594 C 542.835938 99.164062 553.199219 111.847656 566.457031 115.207031 Z M 580.960938 118.878906 " fill-opacity="1" fill-rule="nonzero"/><g clip-path="url(#5d506db604)"><path fill="#fecd1a" d="M 651.757812 193.566406 L 640.714844 195.851562 C 630.613281 197.945312 622.722656 205.839844 620.632812 215.949219 L 618.347656 227 L 616.0625 215.949219 C 613.972656 205.839844 606.082031 197.945312 595.984375 195.851562 L 584.9375 193.566406 L 595.984375 191.277344 C 606.082031 189.1875 613.972656 181.289062 616.0625 171.183594 L 618.347656 160.128906 L 620.632812 171.183594 C 622.722656 181.289062 630.613281 189.1875 640.714844 191.277344 Z M 651.757812 193.566406 " fill-opacity="1" fill-rule="nonzero"/></g><g clip-path="url(#c764c5e3da)"><path fill="#fecd1a" d="M 518.550781 238.828125 L 500.796875 240.738281 C 492.351562 242.488281 485.753906 249.089844 484.003906 257.542969 L 482.09375 282.957031 L 480.183594 257.542969 C 478.4375 249.089844 471.839844 242.488281 463.394531 240.738281 L 447.035156 238.828125 L 463.394531 236.914062 C 471.839844 235.164062 478.4375 228.5625 480.183594 220.113281 L 482.09375 186.839844 L 484.003906 220.113281 C 485.753906 228.5625 492.351562 235.164062 500.796875 236.914062 Z M 518.550781 238.828125 " fill-opacity="1" fill-rule="nonzero"/></g><g clip-path="url(#a25c3ff1a0)"><path fill="#fecd1a" d="M 428.816406 142.558594 L 425.753906 143.414062 C 422.953125 144.195312 420.765625 147.148438 420.1875 150.925781 L 419.554688 155.058594 L 418.917969 150.925781 C 418.339844 147.148438 416.152344 144.195312 413.351562 143.414062 L 410.289062 142.558594 L 413.351562 141.703125 C 416.152344 140.921875 418.339844 137.96875 418.917969 134.191406 L 419.554688 130.058594 L 420.1875 134.191406 C 420.765625 137.96875 422.953125 140.921875 425.753906 141.703125 Z M 428.816406 142.558594 " fill-opacity="1" fill-rule="nonzero"/></g><g clip-path="url(#0dda16d834)"><path fill="#fecd1a" d="M 495.550781 45.410156 L 491.332031 46.585938 C 487.476562 47.664062 484.464844 51.730469 483.664062 56.933594 L 482.792969 62.625 L 481.917969 56.933594 C 481.121094 51.730469 478.109375 47.664062 474.253906 46.585938 L 470.035156 45.410156 L 474.253906 44.230469 C 478.109375 43.15625 481.121094 39.089844 481.917969 33.886719 L 482.792969 28.195312 L 483.664062 33.886719 C 484.464844 39.089844 487.476562 43.15625 491.332031 44.230469 Z M 495.550781 45.410156 " fill-opacity="1" fill-rule="nonzero"/></g><path fill="#fecd1a" d="M 610.949219 53.789062 L 608.898438 54.359375 C 607.019531 54.882812 605.554688 56.863281 605.164062 59.394531 L 604.742188 62.164062 L 604.316406 59.394531 C 603.929688 56.863281 602.460938 54.882812 600.585938 54.359375 L 598.53125 53.789062 L 600.585938 53.214844 C 602.460938 52.691406 603.929688 50.710938 604.316406 48.179688 L 604.742188 45.410156 L 605.164062 48.179688 C 605.554688 50.710938 607.019531 52.691406 608.898438 53.214844 Z M 610.949219 53.789062 " fill-opacity="1" fill-rule="nonzero"/><path fill="#fecd1a" d="M 179.960938 408.664062 L 165.460938 412.335938 C 152.199219 415.695312 141.839844 428.375 139.09375 444.605469 L 136.09375 462.359375 L 133.09375 444.605469 C 130.351562 428.375 119.988281 415.695312 106.730469 412.335938 L 92.226562 408.664062 L 106.730469 404.988281 C 119.988281 401.632812 130.351562 388.949219 133.09375 372.71875 L 136.09375 354.964844 L 139.09375 372.71875 C 141.839844 388.949219 152.199219 401.632812 165.460938 404.988281 Z M 179.960938 408.664062 " fill-opacity="1" fill-rule="nonzero"/><path fill="#fecd1a" d="M 250.761719 483.347656 L 239.714844 485.636719 C 229.617188 487.726562 221.726562 495.625 219.636719 505.730469 L 217.351562 516.785156 L 215.0625 505.730469 C 212.976562 495.625 205.082031 487.726562 194.984375 485.636719 L 183.9375 483.347656 L 194.984375 481.0625 C 205.082031 478.96875 212.972656 471.074219 215.0625 460.964844 L 217.351562 449.910156 L 219.636719 460.964844 C 221.726562 471.074219 229.617188 478.96875 239.714844 481.0625 Z M 250.761719 483.347656 " fill-opacity="1" fill-rule="nonzero"/><g clip-path="url(#bb6df6dacf)"><path fill="#fecd1a" d="M 117.554688 528.609375 L 99.796875 530.523438 C 91.351562 532.273438 84.753906 538.875 83.007812 547.324219 L 81.097656 572.742188 L 79.183594 547.324219 C 77.4375 538.875 70.839844 532.273438 62.394531 530.523438 L 46.035156 528.609375 L 62.394531 526.699219 C 70.839844 524.949219 77.4375 518.347656 79.183594 509.894531 L 81.097656 476.621094 L 83.007812 509.894531 C 84.753906 518.347656 91.351562 524.949219 99.796875 526.699219 Z M 117.554688 528.609375 " fill-opacity="1" fill-rule="nonzero"/></g><g clip-path="url(#5579fe9ef4)"><path fill="#fecd1a" d="M 254.714844 393.398438 L 250.976562 394.441406 C 247.554688 395.398438 244.882812 399.003906 244.175781 403.617188 L 243.402344 408.664062 L 242.628906 403.617188 C 241.921875 399.003906 239.25 395.398438 235.828125 394.441406 L 232.089844 393.398438 L 235.828125 392.351562 C 239.25 391.398438 241.921875 387.792969 242.628906 383.179688 L 243.402344 378.132812 L 244.175781 383.179688 C 244.882812 387.792969 247.554688 391.398438 250.976562 392.351562 Z M 254.714844 393.398438 " fill-opacity="1" fill-rule="nonzero"/></g><g clip-path="url(#c877815e6c)"><path fill="#fecd1a" d="M 27.816406 432.339844 L 24.753906 433.195312 C 21.957031 433.976562 19.769531 436.929688 19.1875 440.707031 L 18.554688 444.839844 L 17.921875 440.707031 C 17.34375 436.929688 15.15625 433.976562 12.355469 433.195312 L 9.292969 432.339844 L 12.355469 431.488281 C 15.15625 430.703125 17.34375 427.753906 17.921875 423.972656 L 18.554688 419.84375 L 19.1875 423.972656 C 19.769531 427.753906 21.957031 430.703125 24.753906 431.488281 Z M 27.816406 432.339844 " fill-opacity="1" fill-rule="nonzero"/></g><g clip-path="url(#2bdca34f68)"><path fill="#fecd1a" d="M 94.550781 335.191406 L 90.332031 336.371094 C 86.476562 337.449219 83.464844 341.511719 82.667969 346.714844 L 81.792969 352.40625 L 80.921875 346.714844 C 80.125 341.511719 77.109375 337.449219 73.253906 336.371094 L 69.039062 335.191406 L 73.253906 334.015625 C 77.109375 332.9375 80.125 328.875 80.921875 323.671875 L 81.792969 317.980469 L 82.667969 323.671875 C 83.464844 328.875 86.476562 332.9375 90.332031 334.015625 Z M 94.550781 335.191406 " fill-opacity="1" fill-rule="nonzero"/></g><path fill="#fecd1a" d="M 209.949219 343.570312 L 207.898438 344.144531 C 206.023438 344.667969 204.554688 346.648438 204.167969 349.179688 L 203.742188 351.949219 L 203.316406 349.179688 C 202.929688 346.648438 201.464844 344.667969 199.585938 344.144531 L 197.535156 343.570312 L 199.585938 343 C 201.464844 342.472656 202.929688 340.496094 203.316406 337.964844 L 203.742188 335.191406 L 204.167969 337.964844 C 204.554688 340.496094 206.023438 342.472656 207.898438 343 Z M 209.949219 343.570312 " fill-opacity="1" fill-rule="nonzero"/><g clip-path="url(#c8cd2b1643)"><path fill="#fecd1a" d="M 637.351562 469.753906 L 622.847656 473.425781 C 609.589844 476.785156 599.226562 489.464844 596.484375 505.695312 L 593.484375 523.449219 L 590.480469 505.695312 C 587.738281 489.464844 577.378906 476.785156 564.117188 473.425781 L 549.617188 469.753906 L 564.117188 466.078125 C 577.378906 462.71875 587.738281 450.039062 590.480469 433.808594 L 593.484375 416.054688 L 596.484375 433.808594 C 599.226562 450.039062 609.589844 462.71875 622.847656 466.078125 Z M 637.351562 469.753906 " fill-opacity="1" fill-rule="nonzero"/></g><g clip-path="url(#5252403f73)"><path fill="#fecd1a" d="M 574.941406 589.699219 L 557.183594 591.613281 C 548.742188 593.363281 542.144531 599.964844 540.394531 608.414062 L 538.484375 633.832031 L 536.574219 608.414062 C 534.828125 599.964844 528.226562 593.363281 519.785156 591.613281 L 503.425781 589.699219 L 519.785156 587.789062 C 528.226562 586.039062 534.828125 579.4375 536.574219 570.984375 L 538.484375 537.710938 L 540.394531 570.984375 C 542.144531 579.4375 548.742188 586.039062 557.183594 587.789062 Z M 574.941406 589.699219 " fill-opacity="1" fill-rule="nonzero"/></g><g clip-path="url(#69acd7f43f)"><path fill="#fecd1a" d="M 485.207031 493.429688 L 482.144531 494.285156 C 479.34375 495.066406 477.15625 498.019531 476.578125 501.796875 L 475.945312 505.929688 L 475.308594 501.796875 C 474.730469 498.019531 472.542969 495.066406 469.742188 494.285156 L 466.679688 493.429688 L 469.742188 492.574219 C 472.542969 491.792969 474.730469 488.84375 475.308594 485.0625 L 475.945312 480.929688 L 476.578125 485.0625 C 477.15625 488.84375 479.34375 491.792969 482.144531 492.574219 Z M 485.207031 493.429688 " fill-opacity="1" fill-rule="nonzero"/></g><g clip-path="url(#5454cf770e)"><path fill="#fecd1a" d="M 551.9375 396.28125 L 547.722656 397.460938 C 543.867188 398.535156 540.851562 402.601562 540.054688 407.804688 L 539.183594 413.496094 L 538.308594 407.804688 C 537.511719 402.601562 534.5 398.535156 530.644531 397.460938 L 526.425781 396.28125 L 530.644531 395.105469 C 534.5 394.027344 537.511719 389.960938 538.308594 384.757812 L 539.183594 379.070312 L 540.054688 384.757812 C 540.851562 389.960938 543.867188 394.027344 547.722656 395.105469 Z M 551.9375 396.28125 " fill-opacity="1" fill-rule="nonzero"/></g><path fill="#620b70" d="M 443.0625 126.710938 C 389 90.652344 317.03125 86.542969 256.179688 109.320312 C 195.328125 132.058594 145.503906 179.421875 112.558594 235.417969 C 99.976562 256.789062 89.460938 280.136719 87.773438 304.882812 C 86.085938 329.632812 94.496094 356.101562 114.027344 371.421875 C 133.554688 386.742188 164.839844 387.316406 181.789062 369.222656 C 197.242188 352.691406 197.242188 327.691406 201.734375 305.554688 C 211.578125 257.011719 248.691406 214.96875 295.652344 199.171875 C 336.527344 185.410156 390.527344 196.75 406.96875 236.628906 C 420.09375 268.445312 404.355469 305.585938 380.75 330.621094 C 357.171875 355.6875 326.429688 372.757812 300.496094 395.375 C 241.9375 446.527344 210.71875 527.332031 219.703125 604.570312 C 223.492188 637.058594 236.554688 671.90625 265.769531 686.589844 C 311.136719 709.363281 358.066406 670.472656 357.394531 623.332031 C 357.171875 606.386719 349.113281 590.8125 348.507812 573.804688 C 347.519531 545.996094 359.050781 517.265625 373.164062 493.921875 C 394.351562 458.851562 424.394531 430.21875 451.761719 399.769531 C 479.160156 369.320312 504.808594 335.332031 514.140625 295.457031 C 528.988281 232.199219 497.097656 162.734375 443.0625 126.710938 Z M 145.503906 364.285156 C 143.144531 364.796875 140.722656 363.9375 138.523438 362.980469 C 120.714844 355.144531 108.289062 337.46875 104.179688 318.453125 C 101.601562 306.507812 102.046875 294.085938 104.5625 282.207031 C 106.09375 275.070312 111.539062 256.46875 118.644531 252.648438 C 122.277344 250.671875 127.183594 251.375 130.113281 254.304688 C 134.988281 259.179688 133.425781 267.269531 131.644531 273.925781 C 127.851562 288.257812 121.992188 303.101562 123.679688 317.847656 C 125.367188 332.59375 132.535156 347.339844 145.246094 354.984375 C 147 356.039062 149.007812 357.152344 149.453125 359.125 C 149.960938 361.453125 147.859375 363.777344 145.503906 364.285156 Z M 255.765625 583.804688 C 256.339844 598.011719 258.378906 612.820312 262.996094 626.292969 C 267.523438 639.480469 282.621094 661.394531 276.125 668.242188 C 268.0625 676.777344 250.382812 650.308594 243.691406 636.359375 C 237 622.40625 235.441406 606.546875 235.34375 591.097656 C 235.089844 554.820312 242.195312 518.542969 256.148438 485.066406 C 258.824219 478.664062 263.539062 471.273438 270.421875 472.070312 C 275.996094 472.707031 279.46875 478.949219 279.246094 484.523438 C 279.023438 490.128906 276.1875 495.226562 273.636719 500.226562 C 260.640625 525.898438 254.585938 555.011719 255.765625 583.804688 Z M 255.765625 583.804688 " fill-opacity="1" fill-rule="nonzero"/><g clip-path="url(#be6af152ad)"><path fill="#620b70" d="M 295.8125 744.84375 C 257.421875 753.0625 226.421875 817.082031 250.414062 849.792969 C 260.128906 863.011719 277.429688 868.902344 293.835938 868.808594 C 319.039062 868.679688 344.238281 855.046875 356.34375 833.007812 C 378.710938 792.332031 345.097656 734.269531 295.8125 744.84375 Z M 275.039062 853.742188 C 274.433594 855.015625 272.683594 855.144531 271.3125 854.855469 C 268.859375 854.378906 266.566406 853.199219 264.71875 851.578125 C 263.0625 850.113281 260.769531 847.816406 260.128906 845.652344 C 259.8125 844.539062 259.972656 843.230469 260.800781 842.433594 C 261.851562 841.417969 263.601562 841.574219 264.84375 842.308594 C 266.089844 843.039062 266.980469 844.25 267.9375 845.367188 C 269.273438 846.925781 270.804688 848.296875 272.492188 849.441406 C 273.222656 849.953125 274.019531 850.460938 274.59375 851.164062 C 275.136719 851.894531 275.421875 852.914062 275.039062 853.742188 Z M 297.882812 775.484375 C 290.746094 782.109375 282.558594 787.523438 275.742188 794.5 C 268.957031 801.441406 263.445312 810.488281 263.699219 820.234375 C 263.761719 822.847656 263.890625 826.097656 261.5625 827.273438 C 259.75 828.167969 257.453125 827.019531 256.464844 825.234375 C 255.480469 823.484375 255.480469 821.351562 255.574219 819.3125 C 256.402344 805.011719 262.296875 791.15625 271.601562 780.324219 C 275.613281 775.644531 295.527344 753.15625 302.058594 764.144531 C 304.285156 767.902344 301.101562 772.523438 297.882812 775.484375 Z M 297.882812 775.484375 " fill-opacity="1" fill-rule="nonzero"/></g></svg>